<?xml version="1.0" encoding="utf-8"?>
<!-- Generator: Adobe Illustrator 16.0.1, SVG Export Plug-In . SVG Version: 6.00 Build 0)  -->
<!DOCTYPE svg PUBLIC "-//W3C//DTD SVG 1.1//EN" "http://www.w3.org/Graphics/SVG/1.1/DTD/svg11.dtd">
<svg version="1.1" id="Layer_1" xmlns="http://www.w3.org/2000/svg" xmlns:xlink="http://www.w3.org/1999/xlink" x="0px" y="0px"
	 width="512px" height="512px" viewBox="0 0 512 512" enable-background="new 0 0 512 512" xml:space="preserve">
<g id="Layer_1_1_" display="none">
	<g display="inline">
		<line fill="none" stroke="#B35047" x1="32" y1="0" x2="32" y2="512"/>
		<line fill="none" stroke="#B35047" x1="64" y1="0" x2="64" y2="512"/>
		<line fill="none" stroke="#B35047" x1="96" y1="0" x2="96" y2="512"/>
		<line fill="none" stroke="#B35047" x1="128" y1="0" x2="128" y2="512"/>
		<line fill="none" stroke="#B35047" x1="160" y1="0" x2="160" y2="512"/>
		<line fill="none" stroke="#B35047" x1="192" y1="0" x2="192" y2="512"/>
		<line fill="none" stroke="#B35047" x1="224" y1="0" x2="224" y2="512"/>
		<line fill="none" stroke="#B35047" x1="256" y1="0" x2="256" y2="512"/>
		<line fill="none" stroke="#B35047" x1="288" y1="0" x2="288" y2="512"/>
		<line fill="none" stroke="#B35047" x1="320" y1="0" x2="320" y2="512"/>
		<line fill="none" stroke="#B35047" x1="352" y1="0" x2="352" y2="512"/>
		<line fill="none" stroke="#B35047" x1="384" y1="0" x2="384" y2="512"/>
		<line fill="none" stroke="#B35047" x1="416" y1="0" x2="416" y2="512"/>
		<line fill="none" stroke="#B35047" x1="448" y1="0" x2="448" y2="512"/>
		<line fill="none" stroke="#B35047" x1="480" y1="0" x2="480" y2="512"/>
		<line fill="none" stroke="#B35047" x1="0" y1="32" x2="512" y2="32"/>
		<line fill="none" stroke="#B35047" x1="0" y1="64" x2="512" y2="64"/>
		<line fill="none" stroke="#B35047" x1="0" y1="96" x2="512" y2="96"/>
		<line fill="none" stroke="#B35047" x1="0" y1="128" x2="512" y2="128"/>
		<line fill="none" stroke="#B35047" x1="0" y1="160" x2="512" y2="160"/>
		<line fill="none" stroke="#B35047" x1="0" y1="192" x2="512" y2="192"/>
		<line fill="none" stroke="#B35047" x1="0" y1="224" x2="512" y2="224"/>
		<line fill="none" stroke="#B35047" x1="0" y1="256" x2="512" y2="256"/>
		<line fill="none" stroke="#B35047" x1="0" y1="288" x2="512" y2="288"/>
		<line fill="none" stroke="#B35047" x1="0" y1="320" x2="512" y2="320"/>
		<line fill="none" stroke="#B35047" x1="0" y1="352" x2="512" y2="352"/>
		<line fill="none" stroke="#B35047" x1="0" y1="384" x2="512" y2="384"/>
		<line fill="none" stroke="#B35047" x1="0" y1="416" x2="512" y2="416"/>
		<line fill="none" stroke="#B35047" x1="0" y1="448" x2="512" y2="448"/>
		<line fill="none" stroke="#B35047" x1="0" y1="480" x2="512" y2="480"/>
		<rect fill="none" stroke="#B35047" width="512" height="512"/>
	</g>
	<g display="inline">
		<rect x="162.557" y="75.895" width="28.748" height="71.862"/>
		<rect x="320.678" y="75.895" width="28.744" height="71.862"/>
		<g>
			<path d="M406.917,119.014h-57.495v28.743h-28.744v-28.743H191.305v28.743h-28.748v-28.743h-57.495
				c-7.934,0-14.375,6.462-14.375,14.368v28.751h330.606v-28.751C421.293,125.476,414.863,119.014,406.917,119.014z"/>
			<path d="M90.687,420.864c0,7.954,6.441,14.376,14.375,14.376h301.855c7.946,0,14.376-6.422,14.376-14.376V176.509H90.687V420.864
				z"/>
		</g>
	</g>
</g>
<g id="Layer_2" display="none">
	<g id="XMLID_11_" display="inline">
		<path d="M445.2,233.217c9.123,63.694-53.52,121.395-93.968,80.455c-33.639-34.047,0.448-112.025,42.262-120.241
			C423.604,187.537,441.747,209.114,445.2,233.217z"/>
		<path d="M336.732,307.348c25.69,36.435,64.521,121.14-6.994,126.672c-22.54,1.743-41.896-15.573-62.223-17
			c-19.475-1.333-46.99,11.657-68.632,14.14c-29.317,3.36-66.334-3.097-74.621-27.443c-12.865-37.788,36.213-101.682,63.073-126.333
			c12.559-11.525,30.142-24.674,50.024-28.795C280.751,239.594,313.752,274.809,336.732,307.348z"/>
		<path d="M321.094,80.81c90.889-11.436,60.448,134.473-5.107,135.019C241.631,216.432,264.402,86.784,321.094,80.81z"/>
		<path d="M190.596,79.843c64.492-7.91,88.181,125.231,28.299,131.286C155.37,217.56,118.162,88.712,190.596,79.843z"/>
		<path d="M94.52,166.708c64.074-15.649,107.662,119.092,51.136,133.265C84.842,315.23,31.848,197.787,88.287,166.67
			C89.736,165.876,92.876,167.124,94.52,166.708z"/>
	</g>
</g>
<g id="Layer_3" display="none">
	<path display="inline" d="M257.375,145.024C195.842,53.09,72.75,106.883,72.75,207.027c0,67.727,61.494,109.216,107.715,145.616
		c48.023,37.881,61.533,55.574,76.91,70.887c15.402-15.312,28.254-33.836,76.936-70.887C381.186,316.986,442,274.029,442,206.283
		C442,106.883,318.934,53.09,257.375,145.024z"/>
</g>
<g id="Layer_4" display="none">
	<path display="inline" d="M256.488,97L96,257.488h29.166V418h58.387v-87.54c0-40.278,32.651-72.946,72.948-72.946
		s72.947,32.668,72.947,72.946V418h58.375V257.488H417L256.488,97z M259.881,166.825c1.764-6.583,7.21-10.867,12.151-9.533
		c4.936,1.318,7.493,7.732,5.735,14.315c-1.767,6.583-7.188,10.867-12.121,9.533C260.704,179.811,258.123,173.396,259.881,166.825z
		 M240.943,157.292c4.948-1.334,10.37,2.95,12.133,9.533c1.764,6.571-0.793,12.985-5.734,14.315
		c-4.936,1.31-10.37-2.95-12.134-9.533S236.007,158.61,240.943,157.292z M216.922,190.48c-1.764-6.583,0.812-12.997,5.747-14.327
		c4.942-1.307,10.388,2.953,12.146,9.536c1.765,6.583-0.805,13.006-5.759,14.315C224.12,201.336,218.686,197.063,216.922,190.48z
		 M284.467,234.982c-6.755,5.172-17.635,0.052-24.924-0.704c-1.033-0.104-2.047-0.132-3.055-0.132c-0.996,0-2.01,0.028-3.055,0.132
		c-7.29,0.756-18.169,5.876-24.924,0.704c-3.368-2.584-7.837-8.581-5.132-15.216c2.231-5.409,10.043-6.804,13.769-10.542
		c7.781-7.784,5.943-20.561,19.343-21.316c13.399,0.756,11.543,13.532,19.319,21.316c3.719,3.737,11.556,5.133,13.778,10.542
		C292.305,226.401,287.835,232.397,284.467,234.982z M296.035,190.469c-1.776,6.595-7.191,10.867-12.135,9.536
		c-4.937-1.334-7.51-7.732-5.746-14.315s7.197-10.855,12.134-9.536C295.229,177.483,297.812,183.897,296.035,190.469z"/>
</g>
<g id="Layer_5" display="none">
	<path display="inline" d="M373.363,97.368H140.636C116.531,97.368,97,116.899,97,141.005v232.728
		c0,24.104,19.531,43.638,43.636,43.638h232.727c24.104,0,43.637-19.531,43.637-43.638V141.005
		C417,116.899,397.469,97.368,373.363,97.368z M371.361,270.635h-43.964v117.643h-44.786V270.635h-31.109v-42.357h31.109
		c0,0,0-17.358,0-36.179c0-28.438,18.38-54.545,60.709-54.545c17.146,0,29.83,1.647,29.83,1.647l-1.01,39.56
		c0,0-12.927-0.127-27.029-0.127c-15.271,0-17.714,7.045-17.714,18.721c0,1.733,0,2.117,0,1.946c0,3.196,0,11.051,0,28.977h45.966
		L371.361,270.635z"/>
</g>
<g id="Layer_6" display="none">
	<path display="inline" d="M375.494,94.368H138.403c-24.557,0-44.455,19.897-44.455,44.454v237.092
		c0,24.557,19.897,44.454,44.455,44.454h237.091c24.557,0,44.454-19.897,44.454-44.454V138.822
		C419.948,114.266,400.051,94.368,375.494,94.368z M341.082,352.948c-5.455,5.44-12.025,8.147-19.695,8.147h-55.148
		c-22.979,0-42.6-8.135-58.896-24.369c-16.309-16.252-24.484-35.816-24.484-58.709V166.636c0-7.843,2.735-14.457,8.176-19.796
		c5.427-5.311,12.04-8.017,19.869-8.017c7.612,0,14.138,2.721,19.564,8.176c5.441,5.441,8.162,11.982,8.162,19.623v40.316h78.534
		c7.119,0,13.226,2.547,18.305,7.583c5.108,5.065,7.627,11.114,7.627,18.176c0,7.076-2.519,13.139-7.61,18.204
		c-5.052,5.036-11.145,7.583-18.265,7.583H238.63v19.506c0,7.67,2.663,14.168,8.031,19.521c5.398,5.326,11.909,8.019,19.536,8.019
		h55.178c7.654,0,14.254,2.722,19.709,8.177s8.219,11.996,8.219,19.623C349.301,340.951,346.537,347.507,341.082,352.948z"/>
</g>
<g>
	<g>
		<path id="SVGID_1_" d="M178.048,247.606c0-1.895,1.56-3.426,3.438-3.426h147.54c1.884,0,3.438,1.532,3.438,3.426v187.711
			c0,1.896-1.555,3.428-3.438,3.428h-147.54c-1.878,0-3.438-1.532-3.438-3.428v-30.443h45.609c4.68,0,8.481-3.801,8.481-8.464
			c0-4.652-3.801-8.455-8.481-8.455h-45.609v-8.713h73.653c4.658,0,8.471-3.791,8.471-8.467c0-4.664-3.813-8.463-8.471-8.463
			h-73.653v-15.047h45.609c4.68,0,8.481-3.791,8.481-8.466c0-4.651-3.801-8.452-8.481-8.452h-45.609v-8.851h73.653
			c4.658,0,8.471-3.792,8.471-8.467c0-4.663-3.813-8.464-8.471-8.464h-73.653V290.43h45.609c4.68,0,8.481-3.802,8.481-8.477
			c0-4.676-3.801-8.465-8.481-8.465h-45.609V247.606L178.048,247.606z M181.486,225.729c-12.056,0-21.866,9.804-21.866,21.877
			v187.711c0,12.062,9.81,21.865,21.866,21.865h147.54c12.051,0,21.877-9.804,21.877-21.865V247.606
			c0-12.073-9.826-21.877-21.877-21.877H181.486z"/>
	</g>
</g>
<path d="M329.264,179.49h-6.944c-10.542-17.645-30.942-29.831-42.835-35.788c2.656-11.687,5.379-32.078-3.653-45.149
	c-5.015-7.273-12.868-11.381-22.705-11.847l-1.827-0.057c-8.833,0-16.221,3.313-21.395,9.6c-10.677,13.049-8.652,35.879-6.49,48.337
	c-17.747,11.8-29.876,27.448-35.034,34.903h-7.137c-12.057,0-21.877,9.736-21.877,21.741c0,11.971,9.82,21.718,21.877,21.718
	h148.021c12.062,0,21.876-9.747,21.876-21.718C351.14,189.226,341.325,179.49,329.264,179.49z M235.447,151.985l2.218-1.282
	l-0.612-2.485c-2.185-8.691-5.94-33.519,2.626-43.946c2.95-3.597,7.154-5.208,12.822-4.947c5.946,0.284,10.146,2.372,12.924,6.4
	c9.111,13.196,0.011,41.722-0.067,42.018l-0.977,2.996l2.917,1.203c0.329,0.147,31.103,13.071,43.755,33.359H199.754
	C205.422,177.47,218.029,162.016,235.447,151.985z M329.264,210.32H181.242c-5.089,0-9.248-4.074-9.248-9.089
	c0-5.027,4.159-9.123,9.248-9.123h148.021c5.095,0,9.246,4.096,9.246,9.123C338.51,206.246,334.357,210.32,329.264,210.32z"/>
</svg>
