<?xml version="1.0" encoding="utf-8"?>
<!-- Generator: Adobe Illustrator 16.0.1, SVG Export Plug-In . SVG Version: 6.00 Build 0)  -->
<!DOCTYPE svg PUBLIC "-//W3C//DTD SVG 1.1//EN" "http://www.w3.org/Graphics/SVG/1.1/DTD/svg11.dtd">
<svg version="1.1" id="Layer_1" xmlns="http://www.w3.org/2000/svg" xmlns:xlink="http://www.w3.org/1999/xlink" x="0px" y="0px"
	 width="512px" height="512px" viewBox="0 0 512 512" enable-background="new 0 0 512 512" xml:space="preserve">
<g id="Layer_1_1_" display="none">
	<g display="inline">
		<line fill="none" stroke="#B35047" x1="32" y1="0" x2="32" y2="512"/>
		<line fill="none" stroke="#B35047" x1="64" y1="0" x2="64" y2="512"/>
		<line fill="none" stroke="#B35047" x1="96" y1="0" x2="96" y2="512"/>
		<line fill="none" stroke="#B35047" x1="128" y1="0" x2="128" y2="512"/>
		<line fill="none" stroke="#B35047" x1="160" y1="0" x2="160" y2="512"/>
		<line fill="none" stroke="#B35047" x1="192" y1="0" x2="192" y2="512"/>
		<line fill="none" stroke="#B35047" x1="224" y1="0" x2="224" y2="512"/>
		<line fill="none" stroke="#B35047" x1="256" y1="0" x2="256" y2="512"/>
		<line fill="none" stroke="#B35047" x1="288" y1="0" x2="288" y2="512"/>
		<line fill="none" stroke="#B35047" x1="320" y1="0" x2="320" y2="512"/>
		<line fill="none" stroke="#B35047" x1="352" y1="0" x2="352" y2="512"/>
		<line fill="none" stroke="#B35047" x1="384" y1="0" x2="384" y2="512"/>
		<line fill="none" stroke="#B35047" x1="416" y1="0" x2="416" y2="512"/>
		<line fill="none" stroke="#B35047" x1="448" y1="0" x2="448" y2="512"/>
		<line fill="none" stroke="#B35047" x1="480" y1="0" x2="480" y2="512"/>
		<line fill="none" stroke="#B35047" x1="0" y1="32" x2="512" y2="32"/>
		<line fill="none" stroke="#B35047" x1="0" y1="64" x2="512" y2="64"/>
		<line fill="none" stroke="#B35047" x1="0" y1="96" x2="512" y2="96"/>
		<line fill="none" stroke="#B35047" x1="0" y1="128" x2="512" y2="128"/>
		<line fill="none" stroke="#B35047" x1="0" y1="160" x2="512" y2="160"/>
		<line fill="none" stroke="#B35047" x1="0" y1="192" x2="512" y2="192"/>
		<line fill="none" stroke="#B35047" x1="0" y1="224" x2="512" y2="224"/>
		<line fill="none" stroke="#B35047" x1="0" y1="256" x2="512" y2="256"/>
		<line fill="none" stroke="#B35047" x1="0" y1="288" x2="512" y2="288"/>
		<line fill="none" stroke="#B35047" x1="0" y1="320" x2="512" y2="320"/>
		<line fill="none" stroke="#B35047" x1="0" y1="352" x2="512" y2="352"/>
		<line fill="none" stroke="#B35047" x1="0" y1="384" x2="512" y2="384"/>
		<line fill="none" stroke="#B35047" x1="0" y1="416" x2="512" y2="416"/>
		<line fill="none" stroke="#B35047" x1="0" y1="448" x2="512" y2="448"/>
		<line fill="none" stroke="#B35047" x1="0" y1="480" x2="512" y2="480"/>
		<rect fill="none" stroke="#B35047" width="512" height="512"/>
	</g>
	<g display="inline">
		<rect x="162.557" y="75.895" width="28.748" height="71.862"/>
		<rect x="320.678" y="75.895" width="28.744" height="71.862"/>
		<g>
			<path d="M406.917,119.014h-57.495v28.743h-28.744v-28.743H191.305v28.743h-28.748v-28.743h-57.495
				c-7.934,0-14.375,6.462-14.375,14.368v28.751h330.606v-28.751C421.293,125.476,414.863,119.014,406.917,119.014z"/>
			<path d="M90.687,420.864c0,7.954,6.441,14.376,14.375,14.376h301.855c7.946,0,14.376-6.422,14.376-14.376V176.509H90.687V420.864
				z"/>
		</g>
	</g>
</g>
<g id="Layer_2" display="none">
	<g id="XMLID_11_" display="inline">
		<path d="M445.2,233.217c9.123,63.694-53.519,121.395-93.968,80.455c-33.638-34.047,0.449-112.025,42.262-120.241
			C423.604,187.537,441.747,209.114,445.2,233.217z"/>
		<path d="M336.732,307.348c25.691,36.434,64.521,121.139-6.994,126.672c-22.54,1.743-41.895-15.574-62.223-17
			c-19.474-1.333-46.989,11.657-68.631,14.139c-29.317,3.361-66.334-3.096-74.621-27.443
			c-12.865-37.788,36.213-101.682,63.073-126.333c12.559-11.526,30.142-24.674,50.024-28.795
			C280.751,239.594,313.752,274.809,336.732,307.348z"/>
		<path d="M321.094,80.81c90.888-11.436,60.448,134.473-5.108,135.019C241.631,216.432,264.402,86.784,321.094,80.81z"/>
		<path d="M190.596,79.843c64.492-7.91,88.181,125.231,28.299,131.286C155.37,217.56,118.162,88.712,190.596,79.843z"/>
		<path d="M94.52,166.708c64.074-15.649,107.662,119.092,51.136,133.265C84.842,315.23,31.848,197.787,88.287,166.67
			C89.736,165.876,92.876,167.124,94.52,166.708z"/>
	</g>
</g>
<g id="Layer_3" display="none">
	<path display="inline" d="M257.375,145.024C195.842,53.09,72.75,106.883,72.75,207.027c0,67.727,61.494,109.216,107.715,145.616
		c48.023,37.881,61.533,55.574,76.91,70.886c15.402-15.312,28.254-33.835,76.936-70.886C381.186,316.986,442,274.029,442,206.283
		C442,106.883,318.934,53.09,257.375,145.024z"/>
</g>
<g id="Layer_4" display="none">
	<path display="inline" d="M256.488,97L96,257.488h29.166V418h58.387v-87.54c0-40.278,32.651-72.946,72.948-72.946
		s72.947,32.668,72.947,72.946V418h58.375V257.488H417L256.488,97z M259.881,166.825c1.764-6.583,7.21-10.867,12.151-9.533
		c4.936,1.318,7.493,7.732,5.735,14.315c-1.766,6.583-7.187,10.867-12.121,9.533C260.704,179.811,258.123,173.396,259.881,166.825z
		 M240.943,157.292c4.948-1.334,10.37,2.95,12.133,9.533c1.764,6.571-0.793,12.985-5.734,14.315
		c-4.936,1.31-10.37-2.95-12.134-9.533S236.007,158.61,240.943,157.292z M216.922,190.48c-1.764-6.583,0.812-12.997,5.747-14.327
		c4.942-1.307,10.388,2.953,12.146,9.536c1.765,6.583-0.805,13.006-5.759,14.315C224.12,201.336,218.686,197.063,216.922,190.48z
		 M284.467,234.982c-6.755,5.172-17.635,0.052-24.924-0.704c-1.033-0.104-2.047-0.132-3.055-0.132c-0.996,0-2.01,0.028-3.055,0.132
		c-7.29,0.756-18.169,5.876-24.924,0.704c-3.368-2.584-7.837-8.581-5.132-15.216c2.231-5.409,10.043-6.804,13.769-10.542
		c7.781-7.784,5.943-20.561,19.343-21.316c13.399,0.756,11.543,13.532,19.319,21.316c3.719,3.737,11.556,5.133,13.779,10.542
		C292.305,226.401,287.835,232.397,284.467,234.982z M296.035,190.469c-1.776,6.595-7.191,10.867-12.135,9.536
		c-4.936-1.334-7.51-7.732-5.746-14.315s7.197-10.855,12.134-9.536C295.229,177.483,297.812,183.897,296.035,190.469z"/>
</g>
<g id="Layer_5" display="none">
	<path display="inline" d="M373.363,97.368H140.636C116.531,97.368,97,116.899,97,141.005v232.728
		c0,24.104,19.531,43.637,43.636,43.637h232.727c24.104,0,43.637-19.531,43.637-43.637V141.005
		C417,116.899,397.469,97.368,373.363,97.368z M371.361,270.635h-43.964v117.643h-44.786V270.635h-31.109v-42.357h31.109
		c0,0,0-17.358,0-36.179c0-28.438,18.38-54.545,60.709-54.545c17.146,0,29.83,1.647,29.83,1.647l-1.009,39.56
		c0,0-12.927-0.127-27.03-0.127c-15.271,0-17.714,7.045-17.714,18.721c0,1.733,0,2.117,0,1.946c0,3.196,0,11.051,0,28.977h45.966
		L371.361,270.635z"/>
</g>
<g id="Layer_6" display="none">
	<path display="inline" d="M375.494,94.368H138.403c-24.557,0-44.455,19.897-44.455,44.454v237.092
		c0,24.557,19.897,44.454,44.455,44.454h237.091c24.557,0,44.454-19.897,44.454-44.454V138.822
		C419.948,114.266,400.051,94.368,375.494,94.368z M341.082,352.948c-5.455,5.44-12.025,8.147-19.695,8.147h-55.148
		c-22.979,0-42.601-8.134-58.896-24.369c-16.309-16.252-24.484-35.816-24.484-58.709V166.636c0-7.843,2.735-14.457,8.176-19.796
		c5.427-5.311,12.04-8.017,19.869-8.017c7.612,0,14.138,2.721,19.564,8.176c5.441,5.441,8.162,11.982,8.162,19.623v40.316h78.534
		c7.119,0,13.226,2.547,18.305,7.583c5.108,5.065,7.627,11.114,7.627,18.176c0,7.076-2.519,13.139-7.611,18.204
		c-5.051,5.036-11.144,7.583-18.264,7.583H238.63v19.506c0,7.67,2.663,14.168,8.031,19.521c5.398,5.326,11.909,8.019,19.536,8.019
		h55.178c7.654,0,14.254,2.721,19.709,8.176s8.219,11.996,8.219,19.623C349.301,340.951,346.537,347.507,341.082,352.948z"/>
</g>
<g>
	<path d="M211.031,206.893c-8.528,0-15.444,6.909-15.444,15.444s6.916,15.444,15.444,15.444c8.535,0,15.444-6.909,15.444-15.444
		S219.566,206.893,211.031,206.893z"/>
	<path d="M301.693,206.893c-8.535,0-15.444,6.909-15.444,15.444s6.909,15.444,15.444,15.444c8.528,0,15.444-6.909,15.444-15.444
		S310.222,206.893,301.693,206.893z"/>
	<path d="M264.538,289.062V277.52l11.097-11.097c1.312-1.312,1.318-3.455,0-4.773h-29.34c-1.312,1.312-1.319,3.454,0,4.773
		l11.097,11.097v11.543l-11.767,10.998c-1.438,1.348-1.514,3.608-0.167,5.053c0.705,0.754,1.654,1.131,2.61,1.131
		c0.872,0,1.751-0.32,2.442-0.963l10.455-9.777l10.454,9.777c0.691,0.643,1.57,0.963,2.442,0.963c0.956,0,1.905-0.377,2.61-1.131
		c1.347-1.444,1.271-3.705-0.167-5.053L264.538,289.062z"/>
	<path d="M476.173,250.846c-0.202-1.961-2.01-3.35-3.915-3.189l-70.068,9.331c0.133-1.843,0.384-3.657,0.384-5.521
		c0-22.576-11.361-45.355-32.075-64.45v-76.475c0-4.243-2.547-8.005-6.399-9.533c-1.249-0.517-2.561-0.781-3.908-0.781
		c-2.806,0-5.527,1.172-7.46,3.196l-47.254,49.536c-15.417-3.866-30.868-5.751-47.108-5.751c-16.093,0-32.863,1.92-47.708,5.43
		l-49.592-49.383c-1.912-1.926-4.571-3.028-7.293-3.028c-1.389,0-2.743,0.279-3.943,0.795c-3.859,1.592-6.357,5.332-6.357,9.52
		v74.702c-20.462,17.601-31.251,40.436-31.251,66.223c0,0.37,0.069,0.719,0.077,1.089l-71.673-9.498
		c-1.926-0.182-3.713,1.229-3.915,3.196c-0.203,1.968,1.228,3.713,3.189,3.922l72.916,9.617c0.523,4.689,1.424,9.296,2.792,13.79
		l-53.465,6.818c-1.954,0.251-3.343,2.045-3.092,3.999c0.23,1.801,1.766,3.119,3.538,3.119c0.154,0,0.307-0.007,0.461-0.027
		l55.042-7.014c1.598,3.908,3.406,7.761,5.604,11.473l-29.73,10.943c-1.85,0.677-2.799,2.735-2.122,4.585
		c0.537,1.444,1.905,2.338,3.356,2.338c0.412,0,0.824-0.069,1.235-0.224l31.377-11.543c24.035,34.141,73.453,57.674,130.554,57.674
		c53.982,0,101.062-21.586,125.774-53.416l32.305,11.885c0.412,0.146,0.824,0.217,1.235,0.217c1.452,0,2.819-0.894,3.357-2.331
		c0.677-1.856-0.272-3.908-2.122-4.593l-30.525-11.235c2.4-3.622,4.536-7.342,6.357-11.188l55.085,7.027
		c0.153,0.015,0.307,0.028,0.46,0.028c1.773,0,3.309-1.319,3.539-3.127c0.251-1.954-1.138-3.74-3.092-3.991l-53.158-6.784
		c1.675-4.543,2.979-9.191,3.789-13.957l71.61-9.492C474.944,254.565,476.375,252.813,476.173,250.846z M381.386,259.109
		l-35.083,3.58c-1.961,0.202-3.392,1.954-3.189,3.915c0.188,1.842,1.737,3.21,3.545,3.21c0.126,0,0.245,0,0.37-0.014l32.836-3.35
		c-0.83,3.098-1.863,6.141-3.183,9.1l-29.562-3.769c-1.933-0.209-3.748,1.131-3.999,3.099c-0.251,1.954,1.138,3.741,3.092,3.992
		l26.932,3.434c-1.34,2.289-2.848,4.509-4.48,6.693l-20.763-7.643c-1.855-0.67-3.9,0.266-4.592,2.122
		c-0.677,1.849,0.272,3.908,2.122,4.585l18.417,6.776c-21.719,24.105-60.808,40.282-105.479,40.282
		c-47.903,0-89.595-17.991-110.748-44.357l19.834-7.301c1.849-0.677,2.798-2.735,2.122-4.585c-0.691-1.85-2.736-2.798-4.592-2.114
		l-21.718,7.983c-1.486-2.274-2.792-4.605-3.971-6.979l27.378-3.489c1.954-0.252,3.343-2.038,3.092-3.999
		c-0.251-1.961-2.094-3.308-3.999-3.092l-29.354,3.741c-1.061-2.938-1.905-5.933-2.478-8.982l31.922,3.259
		c0.125,0.008,0.244,0.015,0.37,0.015c1.808,0,3.357-1.368,3.545-3.211c0.202-1.968-1.229-3.713-3.189-3.922l-33.499-3.412
		c-0.063-1.075-0.245-2.129-0.245-3.211c0-20.874,9.436-39.284,27.274-53.228c2.526-1.962,3.978-4.928,3.978-8.124v-54.771
		l36.165,36.025c1.919,1.912,4.571,3.015,7.286,3.015c0.928,0,1.85-0.125,2.729-0.377c14.502-3.991,31.586-6.189,48.098-6.189
		c16.408,0,31.957,2.156,47.548,6.595c0.921,0.251,1.863,0.384,2.806,0.384c2.805,0,5.527-1.166,7.453-3.189l33.708-35.341v55.377
		c0,3.008,1.305,5.855,3.602,7.823c18.361,15.745,28.474,34.211,28.474,52C381.958,254.042,381.728,256.59,381.386,259.109z"/>
</g>
</svg>
