<?xml version="1.0" encoding="utf-8"?>
<!-- Generator: Adobe Illustrator 16.0.0, SVG Export Plug-In . SVG Version: 6.00 Build 0)  -->
<!DOCTYPE svg PUBLIC "-//W3C//DTD SVG 1.1//EN" "http://www.w3.org/Graphics/SVG/1.1/DTD/svg11.dtd">
<svg version="1.1" xmlns="http://www.w3.org/2000/svg" xmlns:xlink="http://www.w3.org/1999/xlink" x="0px" y="0px" width="512px"
	 height="512px" viewBox="0 0 512 512" enable-background="new 0 0 512 512" xml:space="preserve">
<g id="Layer_1" display="none">
	<g>
		<line display="inline" fill="none" stroke="#B35047" x1="32" y1="0" x2="32" y2="512"/>
		<line display="inline" fill="none" stroke="#B35047" x1="64" y1="0" x2="64" y2="512"/>
		<line display="inline" fill="none" stroke="#B35047" x1="96" y1="0" x2="96" y2="512"/>
		<line display="inline" fill="none" stroke="#B35047" x1="128" y1="0" x2="128" y2="512"/>
		<line display="inline" fill="none" stroke="#B35047" x1="160" y1="0" x2="160" y2="512"/>
		<line display="inline" fill="none" stroke="#B35047" x1="192" y1="0" x2="192" y2="512"/>
		<line display="inline" fill="none" stroke="#B35047" x1="224" y1="0" x2="224" y2="512"/>
		<line display="inline" fill="none" stroke="#B35047" x1="256" y1="0" x2="256" y2="512"/>
		<line display="inline" fill="none" stroke="#B35047" x1="288" y1="0" x2="288" y2="512"/>
		<line display="inline" fill="none" stroke="#B35047" x1="320" y1="0" x2="320" y2="512"/>
		<line display="inline" fill="none" stroke="#B35047" x1="352" y1="0" x2="352" y2="512"/>
		<line display="inline" fill="none" stroke="#B35047" x1="384" y1="0" x2="384" y2="512"/>
		<line display="inline" fill="none" stroke="#B35047" x1="416" y1="0" x2="416" y2="512"/>
		<line display="inline" fill="none" stroke="#B35047" x1="448" y1="0" x2="448" y2="512"/>
		<line display="inline" fill="none" stroke="#B35047" x1="480" y1="0" x2="480" y2="512"/>
		<line display="inline" fill="none" stroke="#B35047" x1="0" y1="32" x2="512" y2="32"/>
		<line display="inline" fill="none" stroke="#B35047" x1="0" y1="64" x2="512" y2="64"/>
		<line display="inline" fill="none" stroke="#B35047" x1="0" y1="96" x2="512" y2="96"/>
		<line display="inline" fill="none" stroke="#B35047" x1="0" y1="128" x2="512" y2="128"/>
		<line display="inline" fill="none" stroke="#B35047" x1="0" y1="160" x2="512" y2="160"/>
		<line display="inline" fill="none" stroke="#B35047" x1="0" y1="192" x2="512" y2="192"/>
		<line display="inline" fill="none" stroke="#B35047" x1="0" y1="224" x2="512" y2="224"/>
		<line display="inline" fill="none" stroke="#B35047" x1="0" y1="256" x2="512" y2="256"/>
		<line display="inline" fill="none" stroke="#B35047" x1="0" y1="288" x2="512" y2="288"/>
		<line display="inline" fill="none" stroke="#B35047" x1="0" y1="320" x2="512" y2="320"/>
		<line display="inline" fill="none" stroke="#B35047" x1="0" y1="352" x2="512" y2="352"/>
		<line display="inline" fill="none" stroke="#B35047" x1="0" y1="384" x2="512" y2="384"/>
		<line display="inline" fill="none" stroke="#B35047" x1="0" y1="416" x2="512" y2="416"/>
		<line display="inline" fill="none" stroke="#B35047" x1="0" y1="448" x2="512" y2="448"/>
		<line display="inline" fill="none" stroke="#B35047" x1="0" y1="480" x2="512" y2="480"/>
		<rect display="inline" fill="none" stroke="#B35047" width="512" height="512"/>
	</g>
	<g display="inline">
		<rect x="162.557" y="75.895" width="28.748" height="71.862"/>
		<rect x="320.678" y="75.895" width="28.744" height="71.862"/>
		<g>
			<path d="M406.917,119.014h-57.495v28.743h-28.744v-28.743H191.305v28.743h-28.748v-28.743h-57.495
				c-7.934,0-14.375,6.462-14.375,14.368v28.751h330.606v-28.751C421.293,125.476,414.863,119.014,406.917,119.014z"/>
			<path d="M90.687,420.864c0,7.954,6.441,14.376,14.375,14.376h301.855c7.946,0,14.376-6.422,14.376-14.376V176.509H90.687V420.864
				z"/>
		</g>
	</g>
</g>
<g id="Layer_2">
	<g id="XMLID_11_">
		<path d="M445.2,233.217c9.123,63.694-53.518,121.395-93.968,80.455c-33.637-34.047,0.45-112.025,42.262-120.241
			C423.604,187.537,441.747,209.114,445.2,233.217z"/>
		<path d="M336.732,307.348c25.692,36.433,64.521,121.138-6.994,126.672c-22.54,1.743-41.894-15.575-62.223-17
			c-19.473-1.333-46.988,11.657-68.63,14.138c-29.317,3.362-66.334-3.095-74.621-27.443
			c-12.865-37.788,36.213-101.682,63.073-126.333c12.559-11.527,30.142-24.674,50.024-28.795
			C280.751,239.594,313.752,274.808,336.732,307.348z"/>
		<path d="M321.094,80.81c90.887-11.436,60.448,134.473-5.109,135.019C241.631,216.432,264.402,86.784,321.094,80.81z"/>
		<path d="M190.596,79.843c64.492-7.91,88.181,125.231,28.299,131.286C155.37,217.56,118.162,88.712,190.596,79.843z"/>
		<path d="M94.52,166.708c64.074-15.649,107.662,119.092,51.136,133.265C84.842,315.231,31.848,197.787,88.287,166.67
			C89.736,165.876,92.876,167.124,94.52,166.708z"/>
	</g>
</g>
</svg>
