<?xml version="1.0" encoding="utf-8"?>
<!-- Generator: Adobe Illustrator 16.0.0, SVG Export Plug-In . SVG Version: 6.00 Build 0)  -->
<!DOCTYPE svg PUBLIC "-//W3C//DTD SVG 1.1//EN" "http://www.w3.org/Graphics/SVG/1.1/DTD/svg11.dtd">
<svg version="1.1" id="Layer_1" xmlns="http://www.w3.org/2000/svg" xmlns:xlink="http://www.w3.org/1999/xlink" x="0px" y="0px"
	 width="243.939px" height="59.15px" viewBox="0 0 243.939 59.15" enable-background="new 0 0 243.939 59.15" xml:space="preserve">
<defs>
	<filter id="Adobe_OpacityMaskFilter" filterUnits="userSpaceOnUse" x="3.438" y="1.153" width="239.553" height="57.284">
		<feFlood  style="flood-color:white;flood-opacity:1" result="back"/>
		<feBlend  in="SourceGraphic" in2="back" mode="normal"/>
	</filter>
</defs>
<mask maskUnits="userSpaceOnUse" x="3.438" y="1.153" width="239.553" height="57.284" id="SVGID_1_">
	<g filter="url(#Adobe_OpacityMaskFilter)">
		<linearGradient id="XMLID_3_" gradientUnits="userSpaceOnUse" x1="193.5693" y1="33.4375" x2="24.5558" y2="33.4375">
			<stop  offset="0" style="stop-color:#FFFFFF"/>
			<stop  offset="0.0876" style="stop-color:#F3F3F3"/>
			<stop  offset="0.2456" style="stop-color:#D3D3D3"/>
			<stop  offset="0.4559" style="stop-color:#A0A0A0"/>
			<stop  offset="0.7108" style="stop-color:#595959"/>
			<stop  offset="1" style="stop-color:#000000"/>
		</linearGradient>
		<rect id="XMLID_1_" x="0.938" y="0.438" fill="url(#XMLID_3_)" width="176.031" height="66"/>
	</g>
</mask>
<g mask="url(#SVGID_1_)">
	<linearGradient id="SVGID_2_" gradientUnits="userSpaceOnUse" x1="122.9399" y1="-35.792" x2="122.9399" y2="172.3609">
		<stop  offset="0" style="stop-color:#FFFFFF"/>
		<stop  offset="0.2762" style="stop-color:#F6F6F6;stop-opacity:0.7874"/>
		<stop  offset="0.7227" style="stop-color:#DEDEDE;stop-opacity:0.4435"/>
		<stop  offset="1" style="stop-color:#CCCCCC;stop-opacity:0.23"/>
	</linearGradient>
	<path fill="url(#SVGID_2_)" d="M3.438,2.438l210-0.833c15.372-0.646,29.004,26.663,29.004,26.663s-11.291,28.358-26.663,29.004
		c-0.769,0.032-1.587,0.029-2.342,0l-210,1.167"/>
	<path fill="#CCCCCC" d="M3.438,2.438l62.788-0.489l62.788-0.338l62.789-0.332l15.697-0.083l3.924-0.021l1.962-0.01
		c0.628-0.024,1.351-0.011,2.007,0.061c2.698,0.276,5.238,1.328,7.509,2.701c4.554,2.796,8.215,6.723,11.467,10.843
		c3.232,4.164,6.069,8.596,8.519,13.275l0.104,0.199l-0.087,0.208c-2.058,4.918-4.545,9.612-7.45,14.07
		c-2.931,4.413-6.296,8.667-10.679,11.82c-2.188,1.548-4.682,2.781-7.388,3.214c-1.349,0.223-2.727,0.192-4.021,0.159l-3.961,0.017
		l-15.844,0.067l-63.375,0.268l-63.375,0.264L3.438,58.438l63.373-0.595l63.374-0.44l63.374-0.436l15.843-0.109l3.961-0.027
		c1.341,0.03,2.62,0.052,3.882-0.159c2.528-0.411,4.896-1.58,7.001-3.079c4.219-3.048,7.529-7.236,10.405-11.599
		c2.855-4.396,5.305-9.089,7.33-13.911l0.017,0.406c-2.39-4.597-5.204-9.024-8.379-13.135c-3.194-4.077-6.796-7.943-11.187-10.652
		c-2.189-1.332-4.606-2.332-7.131-2.597c-0.644-0.069-1.233-0.084-1.912-0.062l-1.962,0.005l-3.924,0.01l-15.697,0.042
		l-62.789,0.167l-62.789,0.16L3.438,2.438z"/>
</g>
</svg>
