<?xml version="1.0" encoding="utf-8"?>
<!-- Generator: Adobe Illustrator 16.0.0, SVG Export Plug-In . SVG Version: 6.00 Build 0)  -->
<!DOCTYPE svg PUBLIC "-//W3C//DTD SVG 1.1//EN" "http://www.w3.org/Graphics/SVG/1.1/DTD/svg11.dtd">
<svg version="1.1" xmlns="http://www.w3.org/2000/svg" xmlns:xlink="http://www.w3.org/1999/xlink" x="0px" y="0px"
	 width="523.25px" height="174.5px" viewBox="0 0 523.25 174.5" enable-background="new 0 0 523.25 174.5" xml:space="preserve">
<g id="Layer_3">
</g>
<g id="Layer_2">
</g>
<g id="Layer_1">
	<g>
		<path fill-rule="evenodd" clip-rule="evenodd" fill="#FFFFFF" d="M407.118,90.193c0.001-0.715-0.352-1.506-1.638-1.258
			c-0.088-1.577-0.61-3.361-2.797-3.16c-0.896,0.083-2.525,0.763-2.831,2.06c-1.885-0.583-3.168,1.27-2.98,2.324
			c-0.953-1.477-2.442-0.798-3.117,0.036c-1.624-1.443-5.314,1.526-5.314,3.301c-1.154-4.621-8.609-4.305-7.566-0.916
			c-5.344,3.572,0.932,6.486,2.629,6.026c0.426,3.879,3.585,5.132,6.925,3.59c0.307,1.73,2.272,1.863,3.078,1.026
			c0.642,0.923,2.171,0.81,2.307-0.256c0.388,1.025,1.591,2.554,3.572,2.045c2.621,4.959,10.165,2.188,10.021-0.763
			c0.837-0.011,1.333-2.115-0.29-2.656c1.996,0.499,5.704,0.728,6.958-0.678c1.999,0.008,1.999-2.466,2.565-3.591
			c1.934,0,2.052-2.541,0.771-3.334c-0.684-1.781-2.1-2.831-3.729-1.26c-1.18-1.776-3.94-0.772-4.479,1.089
			c0.844-2.764-0.837-3.094-2.62-3.198C408.727,90.013,407.264,89.586,407.118,90.193L407.118,90.193z"/>
		<linearGradient id="SVGID_1_" gradientUnits="userSpaceOnUse" x1="399.5078" y1="108.2891" x2="399.5078" y2="87.0806">
			<stop  offset="0.01" style="stop-color:#E6E1CD"/>
			<stop  offset="0.5179" style="stop-color:#F7F4EA"/>
		</linearGradient>
		<path fill-rule="evenodd" clip-rule="evenodd" fill="url(#SVGID_1_)" d="M407.118,90.747c0.001-0.715-0.352-1.506-1.638-1.258
			c-0.088-1.576-0.556-2.583-2.742-2.382c-0.896,0.083-2.328,0.47-2.886,1.283c-0.746-0.109-2.851,1.452-2.665,2.506
			c-0.654-0.648-2.758-0.98-3.433-0.147c-1.624-1.442-5.314,1.527-5.314,3.302c-1.02-4.079-8.448-3.78-7.566-0.916
			c-5.344,3.572,0.932,6.486,2.629,6.026c0.426,3.879,3.585,5.132,6.925,3.59c0.307,1.73,2.272,1.863,3.078,1.025
			c0.642,0.924,2.171,0.811,2.307-0.256c0.388,1.026,1.591,2.554,3.572,2.046c2.621,4.958,10.165,2.187,10.021-0.764
			c0.837-0.011,2.393-2.024,0.771-2.564c1.995,0.499,4.644,0.636,5.897-0.77c1.999,0.008,4.666-2.891,2.565-3.591
			c1.934,0,2.052-2.541,0.771-3.333c-0.684-1.781-2.397-1.504-3.729-1.261c-1.18-1.776-3.94-0.772-4.479,1.089
			c0.68-2.229-2.008-3.162-2.62-3.198C408.727,90.566,407.264,90.14,407.118,90.747L407.118,90.747z"/>
	</g>
	<path fill-rule="evenodd" clip-rule="evenodd" fill="#FFFFFF" d="M109.259,64.153c-0.282,0.631-0.515,1.355-0.682,2.191
		c-1.205-1.025-1.372,1.251-1.558,2.18c-1.092-0.929-4.206,0.071-2.923,1.983c-2.146-0.349-4.077,0.421-5.459,1.741
		c-1.017,2.208-0.854,4.881,1.213,6.788c-0.042-0.04-4.042-0.088-4.201,2.437c-1.387-0.532-2.935,1.082-2.91,1.33
		c-0.924-1.292-2.676-1.992-3.174,0c-2.166-5.413-11.414-6.188-15.667-0.788c-2.273-0.439-2.257,2.328-0.228,3.368
		c-1.204-0.004-2.264,0.588-1.558,2.18c-1.205,0.347-1.621,2.236-0.029,4.166c2.075,2.576,9.91,2.258,11.9-0.397
		c0,5.255,10.042,8.284,13.738,7.284c1.879,2.533,8.395,1.582,9.268,0.252c1.178,2.145,4.144,1.717,4.846,0.767
		c8.018,6.676,28.768-0.092,26.626-7.565c9.613,4.651,16.056,3.54,19.099,0.706c1.812-4.218-1.65-9.648-10.823-8.668
		c3.238-4.557-4.808-6.063-5.669-5.331c0-3.075-4.222-8.419-7.929-8.667c-4.237-0.282-9.365,1.487-10.567,3.173
		C124.187,67.562,114.141,59.918,109.259,64.153L109.259,64.153z"/>
	<linearGradient id="SVGID_2_" gradientUnits="userSpaceOnUse" x1="113.7231" y1="102.1064" x2="113.7231" y2="66.1128">
		<stop  offset="0.01" style="stop-color:#E6E1CD"/>
		<stop  offset="0.4107" style="stop-color:#F7F4EA"/>
	</linearGradient>
	<path fill-rule="evenodd" clip-rule="evenodd" fill="url(#SVGID_2_)" d="M105.396,70.799c-1.325-1.127-4.059,0.291-2.923,1.983
		c-4.418-0.772-5.435,3.159-2.621,6.255c-0.204,0.051-4.404,1.123-2.355,2.762c-0.042-0.039-3.312-0.575-3.469,1.949
		c-1.388-0.532-2.935,1.083-2.911,1.331c-0.923-1.293-2.676-1.992-3.173,0c-1.398-3.496-4.062-5.641-9.362-3.993
		c-0.792-1.604-4.479,0.675-4.681,0.931c-2.273-0.44-2.257,2.328-0.228,3.367c-1.204-0.004-2.264,0.588-1.558,2.18
		c-1.205,0.347-1.621,2.236-0.029,4.166c0.854,1.061,2.686,1.629,4.683,1.748c3.18-0.137,6.262-0.872,7.217-2.145
		c0,5.255,10.042,8.284,13.738,7.284c1.879,2.534,8.395,1.583,9.268,0.253c1.178,2.144,4.144,1.716,4.846,0.767
		c7.579,6.309,28.604-0.664,26.626-7.566c0.137,0.066,1.045,0.457,1.182,0.521c5.039,2.352,11.507,4.298,16.683,1.118l0.001,0
		c0.64-3.933-2.992-8.205-11.215-7.327c3.239-4.556-4.808-6.062-5.669-5.33c0-3.076-4.222-8.42-7.929-8.667
		c-4.237-0.283-9.365,1.486-10.567,3.173c2.065-7.333-7.301-11.837-11.105-8.11c-0.888-0.428-2.319,0.289-2.588,1.366
		C105.854,68.547,105.256,70.152,105.396,70.799L105.396,70.799z"/>
	<path fill-rule="evenodd" clip-rule="evenodd" fill="#FFFFFF" d="M495.959,131.333c-5.167-4.5-24.333-12.667-24.167,6.622
		c-8.833,0.711-14.5,3.211-12.424,9.396c-1.98-1.431-3.58-0.398-4.614,0.803c0.383-0.829,0.697-1.681,0.893-2.551
		c1.247-4.036,1.238-9.765-6.715-13.045c2.001-2.186-3.771-2.923-5.35-1.881c0.001-0.003,0.348-0.373,0.352-0.376
		c-2.402-1.612-5.812-2.382-8.652-1.939c-3.138,0.489-4.465,2.125-6.795,3.742c0.838-4.436-9.901-6.627-12.968-6.582
		c-6.104,0.089-13.991,3.595-15.093,10.108c-2.634-4.636-6.088,3.22-5.833,5.931c-1.573-2.767-5.386,1.979-6.341,3.546
		c-1.754,2.872-1.769,5.172-1.678,8.119c-3.24-0.431-6.474-0.372-9.423,0.326c-5.527,0.814-10.948,3.8-13.606,8.113
		c-0.595-3.768-8.985-4.991-11.038-1.881c-1.146-3.165-14.71-2.385-17.356-1.848c-0.056-0.062-0.115-0.123-0.177-0.182
		c2.263-3.789-0.718-7.605-4.768-7.564c-0.161-2.684-2.347-4.137-4.734-4.366c-1.164-0.723-2.744-0.856-4.425-0.625
		c0.011-0.01,0.022-0.021,0.034-0.03c0.154-0.137,0.313-0.281,0.475-0.43c0.008-0.007,0.015-0.013,0.021-0.02
		c3.977-2.01,4.884-5.23,3.008-8.755c2.467-10.545-15.002-14.473-20.034-6.039h-0.001c-0.047-0.008-0.094-0.012-0.14-0.018
		c-2.961-1.425-6.758-1.222-7.178,3.404c-1.014-1.983-4.496-5.945-12.816-3.753c6.271-7.28,3.381-15.699-5.148-15.24
		c3.385-3.773-1.62-11.922-12.852-4.396c26.858-24.338-18.607-42.061-27.618-21.232c-12.597-1.681-20.279,5.066-16.718,15.616
		c-0.001,0-0.002,0-0.003,0c-3.465-4.826-13.623-5.214-17.766,1.967c-4.314,0.792-6.084,5.721-4.131,8.883
		c-3.922,5.133-1.225,11.375,4.348,15.536c0.463,0.233,0.93,0.541,1.396,0.889c-0.028-0.007-0.053-0.01-0.081-0.016
		c-0.005-0.001-0.01-0.002-0.016-0.003c-0.441-0.283-0.888-0.562-1.3-0.869c-4.812-2.414-9.25,1.193-8.417,4.965
		c-1.216-4.101-8.375-5.501-12.47-1.75c-6.509-1.481-9.028,4.518-8.046,8.598c-2.468-4.626-11.187-6.882-16.244-2.206
		c2.409-3.696-1.79-7.015-3.364-5.075c3.063-6.502-11.173-13.768-16.155-5.414c-0.005,0.003-0.01,0.005-0.015,0.009
		c6.633-11.585-7.64-22.505-21.443-20.226c-7.709,1.272-13.12,7.65-15.038,14.643c-0.086-1.447-0.419-1.635-0.832-1.198
		c-3.378-5.571-20.376-2.083-15.322,6.332c-2.044-0.092-3.152,2.807-2.331,4.544c-6.981-2.63-11.262,4.291-7.898,8.915
		c0.046,0.101,0.096,0.202,0.148,0.303c-1.572-0.955-6.997-0.191-6.519,3.269c-5.549-12.282-27.501-5.232-14.604,6.156
		c-0.003,0-0.006-0.001-0.01-0.002c-2.557-1.646-4.252-3.675-7.293-2.035c-7.883-3.521-11.216-1.188-12.827,3.979
		c-5.844,6.915-5.193,19.304,11.488,19.968l-0.002,0.032h1.423h89.596h189.005h150.969c19.929,0,31.798,0,31.798,0
		S510.959,144,495.959,131.333z"/>
	<g>
		<path fill-rule="evenodd" clip-rule="evenodd" fill="#DAEEF5" d="M454.412,148.58c-0.615,0.828-0.955,1.611-0.955,1.611
			S453.889,149.582,454.412,148.58z"/>
		<path fill-rule="evenodd" clip-rule="evenodd" fill="#DAEEF5" d="M204.528,130.694c0.606,0.453,1.245,0.881,1.914,1.28
			C205.805,131.432,205.163,131.013,204.528,130.694z"/>
		<path fill-rule="evenodd" clip-rule="evenodd" fill="#DAEEF5" d="M521.625,116.5c-0.664-12.614-8.959-16.775-18-17.496
			c1.875-5.629-7.656-6.856-10.625-6.504c-0.625-9.375-15.252-7.459-17.125-6.125c-4.25,3.03,3.793,16.274,3.793,16.274
			c-5.352-5.225-19.68-5.616-22.457,1.13c1.939-5.581-15.627-5.411-19.227-4.869c-8.547,1.286-15.398,5.171-16.117,12.715
			c-1.697-12.601-28.896-3.615-27.273,8.128c-3.768-3.947-11.031,5.279-10.908,8.963c-3.783-7.672-20.508-7.116-27.004-3.418
			c4.799-4.148,8.4-23.325-3.797-21.085c6.611-2.349,1.025-14.225-6.172-12.39c2.549-11.644-14.543-16.644-20.301-17.198
			c-5.24-0.504-11.859-0.093-17.014,3.898c-2.621-7.969-15.803,3.352-14.045,6.422c-2.68,3.329-2.561,5.739-2.039,6.739
			c-0.75-1.481-3.307-4.215-7.529-0.602c3.205-5.286-12.662-15.146-18.394-10.008c-5.963-20.183-48.449-10.252-51.454-3.307
			c1.863-7.522-4.478-14.012-11.932-12.088c7.081-12.641-9.362-16.328-12.926-14.354c-7.559-13.243-31.059-8.888-30.203-1.037
			c-7.189,1.674-6.764,6.386-5.952,7.564c0.131,0.089,0.255,0.18,0.361,0.271c-0.113,0.001-0.241-0.097-0.361-0.271
			c-4.663-3.175-24.782-4.645-27.853,4.05c-7.603,1.286-11.339,9.344-4.597,15.108c-11.58-5.866-41.409,5.426-23.115,25.119
			c-3.609-2.433-9.505-4.777-13.673-0.944c1.714-8.174-17.621-13.392-21.622-3.022c-2.3-7.446-13.482-3.472-15.391,2.455
			c-0.128,0.229,0.125,0.495,0,0.781c0,0-13.55,24.789,8.45,30.694c0.534,3.185,1.69,5.762,3.218,7.862
			c3.932,0.03,8.197,1.924,10.239,6.445c-0.501-3.626,5.494-4.295,6.728-3.123c-4-4.606,0.33-12.081,7.542-9.364
			c-0.822-1.737,0.286-4.636,2.331-4.544c-5.611-9.341,15.961-12.616,15.901-4.163c1.665-7.366,7.225-14.283,15.29-15.614
			c13.833-2.284,28.14,8.686,21.406,20.298c4.936-8.487,19.281-1.19,16.208,5.333c1.574-1.94,5.772,1.379,3.364,5.075
			c5.057-4.676,13.776-2.42,16.244,2.206c-0.981-4.081,1.538-10.079,8.046-8.598c4.096-3.751,11.254-2.351,12.47,1.75
			c-0.833-3.772,3.605-7.378,8.417-4.965c-5.573-4.16-8.27-10.402-4.348-15.536c-1.953-3.162-0.183-8.091,4.131-8.883
			c4.145-7.184,14.309-6.793,17.77-1.961c-3.566-10.553,4.117-17.303,16.716-15.622c9.01-20.829,54.476-3.106,27.618,21.232
			c11.233-7.527,16.237,0.623,12.852,4.396c8.529-0.459,11.42,7.959,5.148,15.24c8.32-2.192,11.803,1.77,12.816,3.753
			c0.426-4.687,4.318-4.837,7.295-3.351c5.004-8.483,22.529-4.558,20.059,6.003c2.088,3.922,0.742,7.474-4.463,9.392
			c2.02-0.424,3.973-0.387,5.35,0.468c2.387,0.229,4.572,1.683,4.734,4.366c4.049-0.041,7.029,3.775,4.768,7.564
			c0.061,0.059,0.121,0.119,0.176,0.182c2.646-0.537,16.211-1.318,17.357,1.848c2.053-3.111,10.443-1.887,11.037,1.881
			c4.248-6.895,15.557-10.398,23.072-7.061c-0.1-3.648-0.383-6.193,1.635-9.498c0.955-1.567,4.768-6.312,6.342-3.546
			c-0.256-2.711,3.199-10.567,5.832-5.931c1.102-6.513,8.988-10.019,15.094-10.108c3.066-0.045,13.805,2.146,12.967,6.582
			c2.33-1.617,3.658-3.253,6.795-3.742c2.84-0.442,6.25,0.327,8.652,1.939c-0.004,0.003-0.35,0.373-0.352,0.376
			c1.58-1.042,7.352-0.305,5.35,1.881c10.252,4.229,7.305,12.529,5.48,16.022c1.004-1.352,2.744-2.826,4.957-1.229
			c-2.076-6.185,3.59-8.685,12.424-9.396c-0.166-19.289,19-11.122,24.166-6.622c2.189,1.848,4.033,4.083,5.598,6.541
			C512.113,136.004,522.367,130.595,521.625,116.5z"/>
	</g>
	<g>
		<path fill-rule="evenodd" clip-rule="evenodd" fill="#CAE2EB" d="M191.08,51.326c3.564-1.974,20.007,1.713,12.926,14.354
			c7.454-1.924,13.794,4.566,11.932,12.088c3.005-6.946,45.49-16.876,51.454,3.307c5.732-5.138,21.599,4.722,18.394,10.008
			c4.223-3.614,6.779-0.879,7.529,0.602c-0.521-1-0.641-3.411,2.039-6.739c-1.758-3.071,11.424-14.391,14.045-6.422
			c5.154-3.991,11.773-4.402,17.014-3.898c5.758,0.555,22.85,5.555,20.301,17.198c7.197-1.835,12.783,10.041,6.172,12.39
			c12.197-2.24,8.596,16.937,3.797,21.085c6.496-3.698,23.221-4.255,27.004,3.418c-0.123-3.685,7.141-12.909,10.908-8.963
			c-1.623-11.743,25.576-20.729,27.273-8.128c0.719-7.543,7.57-11.429,16.117-12.715c3.6-0.542,21.166-0.712,19.227,4.869
			c0.886-2.151,2.947-3.573,5.516-4.348c-0.672-5.328-3.439-10.271-7.035-8.508c-0.7-3.42-0.28-6.585-4.797-6.05
			c-3.683,0.436-5.653,4.695-6.183,7.767c-2.743-1.469-6.554-7.031-9.369-2.27c0.834-4.973-3.985-7.863-8.08-4.562
			c-0.006,0.015-0.012,0.03-0.019,0.044c-0.165,0.174-0.174,0.17-0.023-0.011c0.015-0.012,0.028-0.022,0.042-0.033
			c4.915-11.174,3.978-22.284-8.71-27.76c-6.979-3.012-31.073-3.654-30.271,8.566c-3.282-1.376-6.206-2.125-8.041,1.719
			c-4.833-3.548-7.783,1.104-7.972,5.619c-2.442-1.279-7.466-1.724-9.733,0.355c3.252-5.651-5.817-18.05-10.78-12.395
			c2.132-4.85-4.693-10.626-8.957-7.236c6.222-5.453-7.503-16.144-14.247-7.583c0,0-2.741-2.678-7.35-0.981
			c9.561-5.845,8.603-11.803,0.373-11.706c1.743-4.923-5.188-7.821-7.332-4.049c0-9.496-11.173-22.292-20.88-12.154
			c5.916-26.158-36.349-18.533-29.086-2.024c-14.298-6.352-23.179,7.461-27.433,17.913c0.085,0.657-0.1,1.244-0.651,1.665
			c0.204-0.542,0.42-1.099,0.651-1.665c-0.471-3.617-9.175-9.363-10.097-1.484c-5.106-3.293-11.932-1.122-11.932,2.03
			c-0.074-13.657-32.531-25.401-34.795,0.225c-8.016,0-7.3,3.226-5.9,7.987C180.51,42.784,187.542,45.126,191.08,51.326z"/>
		<path fill-rule="evenodd" clip-rule="evenodd" fill="#CAE2EB" d="M48.442,101.568c0.142-0.283,0.232-0.45,0.232-0.45
			c0.125-0.286-0.128-0.552,0-0.781c1.908-5.926,13.09-9.9,15.391-2.455c4.001-10.37,23.336-5.152,21.622,3.022
			c4.167-3.833,10.064-1.489,13.673,0.943c-18.293-19.693,11.535-30.985,23.115-25.119c-6.742-5.765-3.006-13.822,4.597-15.108
			c0.44-1.247,1.24-2.279,2.286-3.132c-3.679-2.473-8.097-3.708-13.723-3.199c0.979-6.239-12.896-9.313-14.417-4.056
			c0.259-9.22-12.757-13.884-22.868-4.727c-2.548-13.845-19.798-19.249-29.676-12.552c0,0-12.05-8.737-21.462,13.086
			c-8.588-9.323-21.588-3.823-19.577,7.444c-6.344,0.232-6.511,4.704-4.177,5.718c-4.167,7.014,6.333,24.181,11.5,25.848
			c0.833,6.167,4.5,9.667,9.833,9.5s10.667-2.333,11.833-11.724C37.5,90.416,42.78,96.646,48.442,101.568z"/>
	</g>
</g>
</svg>
