<?xml version="1.0" encoding="utf-8"?>
<!-- Generator: Adobe Illustrator 16.0.0, SVG Export Plug-In . SVG Version: 6.00 Build 0)  -->
<!DOCTYPE svg PUBLIC "-//W3C//DTD SVG 1.1//EN" "http://www.w3.org/Graphics/SVG/1.1/DTD/svg11.dtd">
<svg version="1.1" id="Layer_2" xmlns="http://www.w3.org/2000/svg" xmlns:xlink="http://www.w3.org/1999/xlink" x="0px" y="0px"
	 width="211.75px" height="122.938px" viewBox="0 0 211.75 122.938" enable-background="new 0 0 211.75 122.938"
	 xml:space="preserve">
<linearGradient id="SVGID_1_" gradientUnits="userSpaceOnUse" x1="102.0005" y1="2.0005" x2="102.0005" y2="115.0005" gradientTransform="matrix(1 0 0 -1 0 115.875)">
	<stop  offset="0" style="stop-color:#929190"/>
	<stop  offset="1" style="stop-color:#C4C5C3"/>
</linearGradient>
<path fill="#DBDCD9" stroke="url(#SVGID_1_)" stroke-miterlimit="10" d="M165.693,1.375H32.306c-27.875,0-30.473,37.084-30.473,56
	s2.598,56,30.473,56h133.389c27.875,0,36.473-1.598,36.473-29.473V30.848C202.167,2.973,193.568,1.375,165.693,1.375z
	 M20.833,63.375c-3.313,0-6-2.688-6-6c0-3.313,2.687-6,6-6s6,2.687,6,6C26.833,60.688,24.146,63.375,20.833,63.375z"/>
<linearGradient id="SVGID_2_" gradientUnits="userSpaceOnUse" x1="102.0005" y1="107" x2="102.0005" y2="10" gradientTransform="matrix(1 0 0 -1 0 115.875)">
	<stop  offset="0" style="stop-color:#797A78"/>
	<stop  offset="1" style="stop-color:#C4C5C3"/>
</linearGradient>
<path fill="#E3E3E3" stroke="url(#SVGID_2_)" stroke-miterlimit="10" d="M189.843,12.245c-3.85-2.654-13.214-2.87-24.147-2.87
	H32.306c-5.415,0-13.188,1.615-18.151,15.585c-2.867,8.071-4.321,18.978-4.321,32.415c0,13.438,1.454,24.344,4.321,32.415
	c4.963,13.97,12.736,15.585,18.151,15.585h133.389c10.935,0,20.299-0.216,24.147-2.87c2.015-1.388,4.324-4.756,4.324-18.603V30.848
	C194.167,17.001,191.855,13.633,189.843,12.245z M20.833,63.375c-3.313,0-6-2.688-6-6c0-3.313,2.687-6,6-6s6,2.687,6,6
	C26.833,60.688,24.146,63.375,20.833,63.375z"/>
</svg>
