<?xml version="1.0" encoding="utf-8"?>
<!-- Generator: Adobe Illustrator 16.0.0, SVG Export Plug-In . SVG Version: 6.00 Build 0)  -->
<!DOCTYPE svg PUBLIC "-//W3C//DTD SVG 1.1//EN" "http://www.w3.org/Graphics/SVG/1.1/DTD/svg11.dtd">
<svg version="1.1" id="Layer_2" xmlns="http://www.w3.org/2000/svg" xmlns:xlink="http://www.w3.org/1999/xlink" x="0px" y="0px"
	 width="392.003px" height="222.562px" viewBox="0 0 392.003 222.562" enable-background="new 0 0 392.003 222.562"
	 xml:space="preserve">
<g id="XMLID_2_">
	<path fill="#EAEAEA" d="M94.306,124.46c3.297,10.712-4.136,16.09-6.515,14.207c-0.006,0-0.006,0-0.013-0.007
		c2.392,9.739-4.162,3.812-4.162,3.812c-0.271-0.773-0.43-1.539-0.371-2.267c0.496-6.052,2.722-11.522,5.722-16.281
		C91.729,126.787,94.306,124.46,94.306,124.46z"/>
</g>
<g id="XMLID_1_">
	<g>
		<path fill="#CFCECE" d="M217.429,54.355c-0.957-15.601-5.106-27.012-10.763-36.097l1.052-0.674
			c2.543,4.117,4.624,7.817,5.305,9.409c3.759,8.821,5.576,12.607,6.422,24.746c2.068-1.401,2.141-4.691,2.239-7.124
			c2.451,7.817,3.257,13.05,2.861,20.589c1.427-0.106,2.471-0.866,3.29-1.876c-0.152,0.304-2.319,4.493-5.82,5.213
			c0.66-2.643,1.4-13.717-0.496-14.457c-0.991,2.147-2.067,3.713-2.067,3.713s-0.331-3.548-1.48-3.548
			C217.772,54.249,217.594,54.289,217.429,54.355z"/>
		<path fill="#EAEAEA" d="M146.65,61.683c-8.542,1.222-10.577,8.537-10.855,10.229c-0.271,1.691-0.046,4.638-0.046,4.638
			C138.934,65.627,144.219,63.334,146.65,61.683z M132.155,94.311c-1.368,1.91-2.273,4.592-2.312,7.183
			c-0.06,2.927,0.964,5.729,3.627,7.182c7.115,3.885,15.876-0.251,16.212-0.621c-0.105,3.707,1.124,6.839,4.592,8.471
			c4.004,1.876,5.96,0.033,8.86-2.392c3.687-3.092,4.856-1.949,8.999-2.802c4.083-0.846,6.455-3.159,6.984-6.984
			c10.551,0.688,22.594-7.294,25.647-17.219c1.751-5.689-0.541-10.46-5.47-13.559c-5.378-3.383-11.272-3.422-16.868-1.262
			c-7.228,2.795-17.673,11.953-11.066,25.056c-4.922-1.156-14.059,0.753-16.127,5.286C157.875,87.069,138.471,85.476,132.155,94.311
			z M145.045,123.872c-4.737-6.614-10.96-12.223-18.809-15.276c-0.363-0.139-0.767-0.291-1.196-0.469c-0.006,0.006-0.006,0-0.006,0
			c-3.112-1.236-7.571-3.396-7.571-8.623c1.235-0.462,2.484-0.707,3.687-0.542c-0.37-1.249-0.218-5.345-0.218-5.345
			c1.249,1.705,5.484,5.9,7.539,6.35c0.383-6.224-2.96-15.97,7.195-33.176c0.74-1.255,1.553-2.557,2.451-3.898
			c0.265-0.396,0.536-0.8,0.82-1.209c0,0,12.771-17.51,36.833-18.118c0,0,16.682-0.713,19.9,2.339l0.337-3.204l3.547,3.125
			l0.331-2.643c0,0,4.485,4.13,5.463,4.13l0.562-3.72c0,0,0.574,0.853,1.321,1.863c0.971,1.315,2.239,2.901,2.894,3.178
			c0,0-0.581-2.974,0.911-3.879c1.48-0.912,5.18,10.876,5.18,10.876s0.41-0.951,1.216-1.275c0.165-0.066,0.344-0.106,0.542-0.106
			c1.149,0,1.48,3.548,1.48,3.548s1.076-1.566,2.067-3.713c1.896,0.74,1.156,11.814,0.496,14.457c3.501-0.72,5.668-4.909,5.82-5.213
			c0.007-0.007,0.007-0.007,0.007-0.007c0.885-1.09,1.52-2.478,2.101-3.674c2.478,6.119-2.095,22.684-2.095,22.684
			c-8.364,0-13.227,3.858-16.734,8.755c-2.881,4.024-13.009,20.047-17.131,25.459c-10.175-1.672-16.986,7.01-23.831,7.578
			c-4.294,0.357-8.807,0.191-12.883,0c-2.543-0.118-6.144-0.819-9.137-0.746C146.98,123.403,145.924,123.542,145.045,123.872z
			 M175.549,52.102c8.945,2.094,14.013,5.689,18.274,10.79C191.623,52.709,182.704,50.231,175.549,52.102z"/>
		<path fill="#FEDFAD" d="M181.707,207.841c-1.804,2.835-8.008,7.051-10.63,2.558c-7.836,5.636-13.735,3.667-22.186,0.528
			c-8.55-3.179-16.511-0.846-24.987,0.746c-21.142,3.965-30.338-3.31-32.043-6.606c0.304-0.404-0.508-6-0.661-8.927
			c-0.033-0.563-0.039-1.025-0.006-1.336c0.337-3.409-1.434-6.389-2.008-9.614c-1.89-5.14-2.292-10.294-2.28-15.804
			c0.013-6.396,0.218-13.328,1.929-18.779c1.962-1.282,4.704-6.818,4.565-9.053l-0.014-0.065c1.249-0.251,2.518-1.282,3.852-3.476
			c2.326-3.825,1.321-7.163-0.674-10.288v-0.006c8.239-12.383,20.342-19.585,28.469-19.592c0,0,0,0.006,0.006,0
			c0.43,0.178,0.833,0.33,1.196,0.469c7.849,3.053,14.072,8.663,18.809,15.276c0.879-0.33,1.936-0.469,3.085-0.495
			c0,0,32.81,22.334-23.091,67.205c7.842-5.386,17.938-5.762,20.997-5.67c0,0,1.764,1.982,1.632,5.161
			c0.733,0.132,1.5,0.252,2.332,0.337c0.714,0.072,1.48,0.119,2.319,0.119c5.636,0.02,10.234-3.032,17.944-3.032
			c4.545,0,11.37,2.636,14.311,6.666c2.325,3.186,3.105,6.971,3.819,10.612c-0.185,1.097-1.447,2.774-2.412,3.29
			C185.532,208.297,181.244,208.562,181.707,207.841z"/>
		<path fill="#F4A999" d="M279.116,210.722c0.112,0.396,0.165,0.621,0.165,0.621s3.191-4.664,11.556-3.574
			c0,0-0.151,4.969-3.944,8.232c-0.02,0.021-0.04,0.033-0.059,0.047c-0.106,0.092-0.219,0.178-0.331,0.271
			c-0.033,0.026-0.066,0.053-0.099,0.08c-2.412,1.902-5.814,3.468-8.82,1.685c1.235-1.797,2.16-4.989,1.453-7.342L279.116,210.722z"
			/>
		<path fill="#EAEAEA" d="M173.64,163.128c-3.33,2.61-7.162,0.482-7.849,0.066c-0.356-2.689,0.125-4.652,1.467-7.03
			c1.242-2.2,6.131-7.275,6.957-13.103c0.152,6.117,7.875,6.533,13.451,6.224C187.666,149.285,182.816,164.1,173.64,163.128z"/>
		<path fill="#EAEAEA" d="M206.666,18.258c5.656,9.085,9.806,20.497,10.763,36.097c-0.806,0.324-1.216,1.275-1.216,1.275
			s-3.699-11.788-5.18-10.876c-1.492,0.905-0.911,3.879-0.911,3.879c-0.654-0.277-1.923-1.863-2.894-3.178
			c0,0,2.814-21.025-11.893-41.336C199.412,8.274,203.304,12.854,206.666,18.258z"/>
		<path fill="#FFE3BC" d="M361.893,175.973v0.007c-11.237-0.165-24.386,3.786-30.152,10.617c-1.414-1.374-3.105-2.522-4.816-3.679
			c-2.993-2.009-7.341-3.409-9.852-5.882c-6.315-6.224-5.252-19.043-3.561-26.813c2.272-10.492,6.64-18.447,11.958-27.513
			c3.984-6.78,12.837-15.455,21.77-14.894c0.746,0.298,6.111,3.066-1.156,20.616c-1.698-3.924-4.994-7.004-6.798-6.951
			c-2.809,0.079-3.02,1.321-2.974,2.973c0.053,1.812,5.173,3.675,8.391,7.249v0.007c-1.902,9.204-15.169,20.741-16.246,23.074h0.007
			c-3.151,4.492-4.81,10.644-2.239,14.41c-0.694,0.879-0.958,1.672-0.642,2.247c3.297,6.038,9.243-6.681,22.424-7.672
			c-0.026-0.211-0.06-0.422-0.093-0.641c0.337-0.072,12.751-2.577,15.823,5.272c-0.119,1.184-0.337,2.366-0.607,3.476
			C362.766,173.409,362.316,174.816,361.893,175.973z"/>
		<path fill="#CFCECE" d="M165.791,163.194c0.146,1.037,0.409,2.18,0.799,3.501c-2.537-0.316-3.938-1.269-4.545-2.569
			c-0.562-1.189-0.457-2.67,0.059-4.223c0.317,0.76,1.546,3.323,3.574,3.218C165.678,163.121,165.718,163.147,165.791,163.194z"/>
		<path fill="#CFCECE" d="M175.1,167.046c-0.707,0.065-1.665,1.229-2.563,1.421c-2.016,0.429-4.863-0.482-5.946-1.771
			c-0.39-1.321-0.654-2.464-0.799-3.501c0.688,0.416,4.519,2.544,7.849-0.066C173.659,164.469,174.062,165.79,175.1,167.046z"/>
		<path fill="#F4A999" d="M364.595,123.298c8.061,0,10.525,14.153,10.697,18.335c0.825,20.795-11.298,31.301-12.157,30.243h-0.006
			c0.271-1.109,0.488-2.292,0.607-3.476c0.337-3.112,0.026-6.29-1.737-8.597c-2.372-3.092-2.755-5.008-1.428-9.039
			c0.893-2.695,1.354-2.411,2.247-5.166c1.829-5.664,2.292-14.307,1.348-22.288h0.007
			C364.312,123.298,364.456,123.291,364.595,123.298z"/>
		<path fill="#CFCECE" d="M201.665,137.431c0.014,0,0.021-0.006,0.033-0.013c0.231-0.118,0.482-0.257,0.753-0.409
			c-5.431,4.301-8.04,8.55-9.527,11.873h-0.006c-0.826,0-2.841,0.271-5.252,0.403c2.187-5.26,8.001-8.894,11.417-10.651
			c0.007-0.007,0.013-0.007,0.021-0.013C200.026,138.25,200.886,137.847,201.665,137.431z"/>
		<path fill="#FEDEAD" d="M167.185,152.193c-2.021,2.015-4.183,4.98-5.081,7.71c-0.516,1.553-0.621,3.033-0.059,4.223l-0.027,0.013
			c-1.546,7.242-9.818,15.046-15.982,20.773c-3.059-0.092-13.154,0.284-20.997,5.67c55.9-44.871,23.091-67.205,23.091-67.205
			c2.993-0.073,6.594,0.628,9.137,0.746c4.077,0.191,8.589,0.357,12.883,0c6.845-0.568,13.656-9.25,23.831-7.578
			c-0.291,0.376-0.548,0.707-0.773,0.971c-3.7,4.38-8.464,6.772-12.414,10.665c-3.409,3.363-4.902,5.491-5.762,10.149
			c-0.211,1.143-0.443,2.153-0.694,3.072C172.893,146.669,170.686,148.697,167.185,152.193z"/>
		<path fill="#CFCECE" d="M192.918,148.882c-1.024,2.3-1.513,4.163-2.028,5.3c-2.405,5.331-5.894,14.43-13.068,13.809
			c-0.819-0.072-1.87-1.018-2.722-0.944c-1.038-1.256-1.441-2.577-1.46-3.918c9.176,0.972,14.026-13.843,14.026-13.843
			C190.077,149.152,192.092,148.882,192.918,148.882z"/>
		<path fill="#FFE3BC" d="M259.429,188.395c2.86-0.27,6.031,0.08,9.256,1.612c5.094,2.405,13.53,7.13,15.725,8.782
			c0,0,5.015,3.455,5.496,4.439c0,0-0.29,2.121,0.932,4.54c-8.364-1.09-11.556,3.574-11.556,3.574s-0.053-0.225-0.165-0.621
			l-0.079,0.02c-0.634-2.094-2.557-3.534-6.699-2.755c-7.663,1.434-8.827,8.141-9.005,9.858c0,0.072-0.007,0.132-0.014,0.185
			c0.047-1.262-0.046-7.525-6.731-7.625c-5.616-0.105-10.406,2.293-10.519,3.629c0.714-5.955-0.43-9.886-2.63-12.403
			c-5.133-5.888-13.827,1.123-19.933-22.247c-2.926,1.374-5.457,7.381-7.108,21.388c0,2.861,1.269,5.947,2.57,8.299
			c-6.019,0.265-6.924-4.036-6.924-4.036c-1.758-3.853-0.344-6.932-0.675-9.238c-0.469-3.244-0.092-6.574-0.257-9.892
			c-2.386-1.176-5.174-4.479-6.653-7.412c0,0-26.434,8.688-44.133,1.79l-0.073-0.053c2.312-2.994,4.394-6.449,5.424-10.076
			c21.432,6.501,26.004-8.702,28.27-15.283c4.83-12.574,16.286-18.634,20.601-19.182l0.356,0.026
			c-0.76,6.144-1.216,11.879-0.74,14.105c0.119,0.536,0.258,1.025,0.43,1.468c0,0.014,0.007,0.02,0.007,0.033
			c3.065,11.82,17.594,8.934,17.594,8.934c0.172,1.837,0.535,3.495,1.229,4.85C242.674,183.188,256.396,187.629,259.429,188.395z"/>
		<path fill="#CFCECE" d="M177.365,42.369c1.956,0.634,10.168,0.423,11.615-1.117c-0.377-0.469-1.282-1.321-1.282-1.321
			c1.5,0.225,3.945-0.713,3.945-0.713l-2.55-4.791c0,0,3.456,2.425,4.777,3.436c0.984-3.924-5.312-10.763-7.367-13.73
			c4.77,1.415,10.432,9.304,13.392,13.314c0.212-5.926-4.889-13.485-7.446-18.494c3.779,3.192,9.23,9.548,11.748,13.869
			c-0.192-4.876-7.718-25.425-10.314-26.311C187.494,12.622,178.356,22.421,177.365,42.369z M195.145,1.224
			c2.062,0.363,8.04,9.02,12.573,16.36l-1.052,0.674c-3.362-5.404-7.254-9.984-11.33-14.14
			c14.707,20.312,11.893,41.336,11.893,41.336c-0.747-1.011-1.321-1.863-1.321-1.863l-0.562,3.72c-0.978,0-5.463-4.13-5.463-4.13
			l-0.331,2.643l-3.547-3.125l-0.337,3.204c-3.218-3.052-19.9-2.339-19.9-2.339c-1.235-15.422,6.204-27.084,12.335-34.689
			C191.246,4.97,194.101,1.039,195.145,1.224z"/>
		<path fill="#EAEAEA" d="M167.257,156.164c-1.341,2.378-1.823,4.341-1.467,7.03c-0.073-0.047-0.112-0.073-0.112-0.073
			c-2.028,0.105-3.257-2.458-3.574-3.218c0.898-2.729,3.059-5.695,5.081-7.71c3.501-3.496,5.708-5.524,7.155-10.791
			c-0.099,0.594-0.139,1.15-0.125,1.659C173.389,148.889,168.499,153.964,167.257,156.164z"/>
		<path fill="#FFFFFF" d="M201.665,137.431c-0.779,0.416-1.639,0.819-2.562,1.19C200.489,137.907,201.48,137.504,201.665,137.431z"
			/>
		<path fill="#CFCECE" d="M132.155,94.311c6.316-8.834,25.72-7.242,23.078,8.339c0,0-1.764,2.722-3.581,3.634
			c-11.311-6.198-21.723-4.791-21.723-4.791h-0.085C129.882,98.903,130.788,96.22,132.155,94.311z M150.331,99.504
			c0,0-8.179-9.33-17.759-1.07C134.474,98.024,150.331,99.504,150.331,99.504z"/>
		<path fill="#EAEAEA" d="M199.082,138.634c-3.416,1.758-9.229,5.392-11.417,10.651c-5.576,0.31-13.299-0.106-13.451-6.224
			c0.086-0.55,0.125-1.098,0.125-1.659c0.251-0.919,0.483-1.93,0.694-3.072c0.859-4.658,2.353-6.786,5.762-10.149
			c3.95-3.893,8.714-6.284,12.414-10.665c0.225-0.265,0.482-0.595,0.773-0.971c4.122-5.412,14.25-21.435,17.131-25.459
			c3.508-4.896,8.37-8.755,16.734-8.755c0,0,9.145,0.826,14.04,5.947c-7.585,2.267-12.791,6.607-16.385,11.424
			c-4.665,6.231-6.64,13.248-7.618,17.596c-0.476,2.108-1.235,6.33-1.955,11.095l-0.225-0.033
			c-2.597,1.962-9.659,6.614-13.254,8.649c-0.271,0.152-0.521,0.291-0.753,0.409c-0.013,0.007-0.02,0.013-0.033,0.013
			c-0.185,0.073-1.176,0.477-2.562,1.19C199.095,138.627,199.089,138.627,199.082,138.634z"/>
		<path fill="#FDDBAB" d="M364.595,123.298c-0.139-0.007-0.283,0-0.422,0.013h-0.007c-0.186-1.592-0.43-3.164-0.733-4.678
			c-0.681-3.423-1.646-6.562-2.907-9.079c2.907-0.681,7.241-1.163,10.221-0.562c2.848,0.582,4.394,1.962,6.646,3.694
			c5.364,4.13,9.712,8.841,11.126,15.733c1.876,9.118,4.023,19.519,0.892,28.604c-2.986,8.669-11.951,15.356-19.569,19.882
			c-2.431-0.582-5.133-0.886-7.948-0.925v-0.007c0.424-1.156,0.873-2.563,1.236-4.097h0.006c0.859,1.058,12.982-9.448,12.157-30.243
			C375.12,137.451,372.655,123.298,364.595,123.298z"/>
		<path fill="#FFE9BD" d="M346.083,128.438c0.944,2.187,1.395,4.638,0.806,6.958c-0.436-1.407-1.229-2.624-2.187-3.688v-0.007
			c-3.218-3.574-8.338-5.438-8.391-7.249c-0.046-1.651,0.165-2.894,2.974-2.973c1.804-0.053,5.1,3.027,6.798,6.951V128.438z"/>
		<path fill="#FFE9BD" d="M278.179,117.186c4.248,3.997-4.394,5.339-6.356,6.204c-3.369,1.494-5.701,3.173-8.503,5.71l-0.013-0.021
			C263.663,125.148,273.871,113.135,278.179,117.186z"/>
		<path fill="#F5D09B" d="M379.639,192.763c2.233,1.327,3.225,3.714,3.105,6.026c-1.949-2.227-5.695-1.658-7.638-0.535
			c-4.109,2.372-4.182,5.562-3.224,7.685c-2.042,0.139-4.018,0.125-5.511,0.125c-0.442,0-0.885,0-1.321,0.007
			c1.051-1.917-1.011-6.277-4.915-10.176c-4.195-4.189-8.926-6.257-10.571-4.612c-1.645,1.651,0.43,6.377,4.625,10.572
			c1.969,1.969,4.057,3.463,5.887,4.328c-2.9,0.093-5.867,0.205-9.229,0.205c-4.248,0-14.139,0.628-18.13-0.819l-0.29-0.093
			c4.394-4.711,3.35-10.639,2.814-12.964c-0.575-2.478-1.856-4.341-3.501-5.915c5.767-6.831,18.915-10.782,30.152-10.617
			c2.815,0.039,5.518,0.343,7.948,0.925c5.286,2.802,4.13,7.097,4.13,7.097C378.344,183.671,382.711,188.838,379.639,192.763z
			 M373.065,197.665c2.887-1.301,4.453-4.077,3.495-6.197c-0.959-2.114-4.077-2.775-6.964-1.467
			c-2.888,1.301-4.446,4.076-3.488,6.198C367.066,198.319,370.185,198.974,373.065,197.665z M367.562,190.43
			c2.888-1.301,4.446-4.077,3.488-6.198c-0.958-2.12-4.076-2.774-6.963-1.473c-2.888,1.308-4.447,4.083-3.489,6.204
			C361.557,191.078,364.675,191.738,367.562,190.43z"/>
		<path fill="#F4A999" d="M382.744,198.789c-0.093,1.909-0.951,3.772-2.497,4.955c-1.877,1.44-5.193,1.989-8.364,2.194
			c-0.958-2.122-0.886-5.312,3.224-7.685C377.049,197.131,380.795,196.562,382.744,198.789z"/>
		<path fill="#F4A999" d="M376.561,191.468c0.958,2.12-0.608,4.896-3.495,6.197c-2.881,1.309-5.999,0.654-6.957-1.466
			c-0.958-2.122,0.601-4.897,3.488-6.198C372.483,188.692,375.602,189.354,376.561,191.468z"/>
		<path fill="#F4A999" d="M371.05,184.231c0.958,2.121-0.601,4.897-3.488,6.198c-2.887,1.309-6.005,0.648-6.964-1.467
			c-0.958-2.121,0.602-4.896,3.489-6.204C366.974,181.457,370.092,182.111,371.05,184.231z"/>
		<path fill="#F4A999" d="M360.136,195.895c3.904,3.898,5.966,8.259,4.915,10.176c-1.678,0.014-3.316,0.06-4.975,0.112
			c-1.83-0.865-3.918-2.359-5.887-4.328c-4.195-4.195-6.27-8.921-4.625-10.572C351.21,189.638,355.94,191.705,360.136,195.895z"/>
		<path fill="#FEDCA7" d="M364.166,123.311c0.944,7.981,0.481,16.624-1.348,22.288c-0.893,2.755-1.354,2.471-2.247,5.166
			c-1.327,4.031-0.944,5.947,1.428,9.039c1.764,2.307,2.074,5.484,1.737,8.597c-3.072-7.85-15.486-5.345-15.823-5.272
			c-1.004-6.614-3.706-14.934-11.886-13.976c-2.643,0.311-5.443,2.598-7.564,5.631h-0.007c1.077-2.333,14.344-13.87,16.246-23.074
			c0.958,1.063,1.751,2.28,2.187,3.688c0.589-2.32,0.139-4.771-0.806-6.958v-0.007c7.268-17.549,1.902-20.318,1.156-20.616
			c0.984,0.06,1.969,0.238,2.946,0.535c7.268,2.227,12.019,9.013,13.247,10.282C363.736,120.146,363.98,121.719,364.166,123.311z"/>
		<path fill="#FFEFE0" d="M282.724,178.227c12.995-7.195,11.252-27.897,10.975-40.307c-0.331-14.569-8.055-29.767-11.628-34.346
			c-2.009-2.577-7.506-8.438-15.89-8.193c-2.795-1.949-6.178-3.436-8.212-4.665c8.654-12.68,28.515-17.106,28.515-17.106
			c0.575-0.205,1.195-0.383,1.85-0.536c5.787-1.387,14.158-1.004,17.092-0.951c13.788,4.348,17.422,11.946,19.841,17.146
			l0.139-0.006c0.132,2.194,0.02,3.707,0.283,3.753c0.284,0.046,0.833-0.654,1.474-1.771c5.352-1.976,6.917-4.705,9.15-8.088
			c14.093,8.861,20.494,20.893,24.214,26.397c1.262,2.517,2.227,5.656,2.907,9.079c-1.229-1.269-5.979-8.055-13.247-10.282
			c-0.978-0.297-1.962-0.475-2.946-0.535c-8.933-0.561-17.785,8.114-21.77,14.894c-5.318,9.065-9.686,17.021-11.958,27.513
			c-1.691,7.771-2.755,20.59,3.561,26.813c2.511,2.473,6.858,3.873,9.852,5.882c1.711,1.156,3.402,2.305,4.816,3.679
			c1.645,1.574,2.926,3.438,3.501,5.915c0.535,2.325,1.579,8.253-2.814,12.964c-3.197,3.422-9.27,6.204-20.501,6.481
			c5.206-2.319,10.571-7.176,9.521-12.508c-0.165-0.819-0.562-1.823-1.235-2.887c-2.655-4.275-9.521-9.502-21.889-7.658
			c-10.452,1.56-13.913,9.885-13.913,9.885c-2.194-1.652-10.631-6.377-15.725-8.782c2.167-6.568,8.14-8.774,13.451-11.463
			C282.334,178.444,282.532,178.339,282.724,178.227z"/>
		<path fill="#FDDBAC" d="M347.913,163.128c0.033,0.219,0.066,0.43,0.093,0.641c-7.399-3.905-18.75,1.579-21.782,5.425
			c-2.57-3.767-0.912-9.918,2.239-14.41c2.121-3.033,4.922-5.32,7.564-5.631C344.207,148.194,346.909,156.514,347.913,163.128z"/>
		<path fill="#161616" d="M326.224,169.193c3.032-3.846,14.383-9.33,21.782-5.425c-13.181,0.991-19.127,13.71-22.424,7.672
			C325.266,170.865,325.529,170.072,326.224,169.193z"/>
		<path fill="#F6D9B0" d="M336.312,83.157c-2.233,3.383-3.799,6.112-9.15,8.088c1.626-2.822,3.858-8.293,3.865-11.062
			C332.902,81.122,334.66,82.12,336.312,83.157z"/>
		<path fill="#CFCECE" d="M328.496,65.535c2.272,4.863,2.748,10.413,2.53,14.648c-0.007,2.769-2.239,8.24-3.865,11.062
			c-0.641,1.116-1.189,1.817-1.474,1.771c-0.264-0.046-0.151-1.559-0.283-3.753c-0.026-0.43-0.06-0.879-0.112-1.355l1.188-0.125
			c3.984-8.379,3.086-16.42,0.773-21.739L328.496,65.535z"/>
		<path fill="#CFCECE" d="M328.496,65.535l-1.242,0.509c-1.817-4.169-4.499-6.667-6.389-6.344
			c9.91,10.493,6.778,22.545,5.615,28.083l-1.188,0.125c-0.43-4.109-1.923-9.726-7.492-13.023l0.007-0.014
			c-0.285-1.831-3.298-4.889-5.107-4.651c-0.363,0.753-0.688,1.638-0.502,2.524v0.006c-1.949-0.429-4.195-0.654-6.772-0.627
			c0.258-1.216,1.844-2.57,3.079-2.9c0.079-1.13-0.205-2.465-1.123-3.132c1.89-0.588,5.84,0.568,5.259-2.346
			c-1.639-0.826-4.737-1.731-6.501-1.811c0.337-0.713,2.676-2.015,5.41-2.59c0.014-0.905-2.517-2.946-6.454-2.781
			c-1.89,0.08-13.709,2.643-16.762,16.505v0.006c-0.654,0.152-1.274,0.331-1.85,0.536c0,0,2.392-18.574,21.584-19.195
			C319.55,54.038,325.549,59.211,328.496,65.535z"/>
		<path fill="#EAEAEA" d="M327.254,66.044c2.312,5.319,3.211,13.36-0.773,21.739c1.163-5.538,4.295-17.589-5.615-28.083
			C322.755,59.376,325.437,61.875,327.254,66.044z"/>
		<path fill="#F6D9B0" d="M325.404,89.263l-0.139,0.006c-2.419-5.2-6.053-12.799-19.841-17.146c2.577-0.027,4.823,0.198,6.772,0.627
			c2.22,0.476,4.063,1.209,5.603,2.135c5.569,3.297,7.062,8.914,7.492,13.023C325.345,88.384,325.378,88.833,325.404,89.263z"/>
		<path fill="#161616" d="M321.446,199.449c1.051,5.332-4.314,10.188-9.521,12.508c-2.352-0.02-4.975,1.752-6.745,2.029
			c-3.481,0.535-5.53-1.805-8.78-1.263c-3.053-1.368-4.691-3.237-5.563-4.955c-1.222-2.419-0.932-4.54-0.932-4.54
			c20.263,4.012,28.595-3.806,30.306-6.666C320.885,197.626,321.281,198.63,321.446,199.449z"/>
		<path fill="#FFFFFF" d="M317.807,74.871l-0.007,0.014c-1.539-0.925-3.383-1.659-5.603-2.135v-0.006
			c-0.186-0.886,0.139-1.771,0.502-2.524C314.509,69.982,317.521,73.041,317.807,74.871z"/>
		<path fill="#EAEAEA" d="M312.64,63.744c0.581,2.914-3.369,1.758-5.259,2.346c0.918,0.667,1.202,2.002,1.123,3.132
			c-1.235,0.33-2.821,1.685-3.079,2.9c-2.934-0.053-11.305-0.436-17.092,0.951v-0.006c3.053-13.863,14.872-16.426,16.762-16.505
			c3.938-0.165,6.468,1.876,6.454,2.781c-2.734,0.575-5.073,1.877-5.41,2.59C307.902,62.013,311.001,62.918,312.64,63.744z"/>
		<path fill="#FBEBDC" d="M301.375,191.11c5.748,0,9.091,1.876,9.091,3.383c0,1.508-3.343,2.062-9.091,2.062
			c-5.741,0-10.399,0.105-10.399-1.401S295.634,191.11,301.375,191.11z"/>
		<path fill="#6D3214" d="M320.211,196.562c-0.993,3.19-12.197,12.192-30.306,6.666 M289.905,203.229
			c-0.481-0.984-5.496-4.439-5.496-4.439s3.461-8.325,13.913-9.885c12.368-1.844,19.233,3.383,21.889,7.658 M310.466,194.493
			c0-1.507-3.343-3.383-9.091-3.383c-5.741,0-10.399,2.537-10.399,4.044s4.658,1.401,10.399,1.401
			C307.123,196.556,310.466,196.001,310.466,194.493z"/>
		<path fill="#FCE2AD" d="M263.319,129.1c2.802-2.537,5.134-4.216,8.503-5.71c1.963-0.865,10.604-2.207,6.356-6.204
			c-4.308-4.05-14.516,7.963-14.872,11.894L263.319,129.1z M273.296,144.587c-0.35-0.277-0.707-0.502-1.076-0.673
			c-2.94-1.395-8.345-0.78-11.04,0.646c-5.557,2.947-4.995,9.767-4.275,15.124v0.007c-0.739,0.271-1.46,0.621-2.16,1.052
			c5.101,0.283,9.864,0.39,14.179,3.356c1.413,0.978,7.433,7.434,9.296,5.781c0.832-0.74,0.35-2.175-1.005-3.773
			c4.129-2.716,1.883-15.111-2.649-20.312c-0.006-0.006-0.006-0.006-0.014-0.013C274.155,145.32,273.732,144.918,273.296,144.587z
			 M238.168,145.38c-0.754,0.595-1.5,1.163-2.227,1.698c-1.309,0.978-2.57,1.863-3.799,2.676c-1.93,1.288-3.766,2.399-5.504,3.363
			c-4.387,2.425-9.989,3.628-12.037-1.797c0-0.014-0.007-0.02-0.007-0.033c-0.172-0.442-0.311-0.932-0.43-1.468
			c12.784,2.348,33.939-29.039,33.397-42.875c-0.481-12.369-10.465-15.421-22.06-7.242c3.594-4.817,8.8-9.158,16.385-11.424
			c7.61-1.097,12.235,0.753,16.081,2.438c2.034,1.229,5.417,2.716,8.212,4.665c8.384-0.245,13.881,5.617,15.89,8.193
			c3.573,4.579,11.297,19.776,11.628,34.346c0.277,12.409,2.021,33.111-10.975,40.307c-1.03,0.238-25.879,5.82-39.488-13.189v-0.006
			c-0.356-4.348,9.058-5.901,9.058-5.901C242.932,156.93,238.168,145.38,238.168,145.38z"/>
		<path fill="#FFEFE0" d="M296.4,212.724c-1.315,3.284-6.864,1.137-9.508,3.277c3.793-3.264,3.944-8.232,3.944-8.232
			C291.709,209.486,293.348,211.355,296.4,212.724z"/>
		<path fill="#FFFFFF" d="M286.503,216.318c0.112-0.093,0.225-0.179,0.331-0.271C286.728,216.146,286.615,216.232,286.503,216.318z"
			/>
		<path fill="#FCDAAA" d="M282.724,178.227c-0.191,0.112-0.39,0.218-0.588,0.317c-5.312,2.688-11.284,4.895-13.451,11.463
			c-3.225-1.532-6.396-1.882-9.256-1.612c-3.033-0.766-16.755-5.207-26.005-23.291c-0.693-1.354-1.057-3.013-1.229-4.85
			c-0.297-3.132-0.04-6.786,0.079-10.309l-0.132-0.191c1.229-0.812,2.49-1.698,3.799-2.676c1.499,7.612,4.083,13.467,7.294,17.953
			v0.006C256.845,184.047,281.693,178.465,282.724,178.227z"/>
		<path fill="#F4A999" d="M279.037,210.741c0.707,2.353-0.218,5.545-1.453,7.342c-1.467,2.279-7.452,3.997-14.277,0.165
			c0,0,0.007-0.073,0.013-0.219c0.007-0.053,0.014-0.112,0.014-0.185c0.178-1.718,1.342-8.425,9.005-9.858
			C276.48,207.207,278.403,208.647,279.037,210.741z"/>
		<path fill="#351115" d="M277.214,166.107c1.354,1.599,1.837,3.033,1.005,3.773c-1.863,1.652-7.883-4.804-9.296-5.781
			c-4.314-2.967-9.078-3.073-14.179-3.356c0.7-0.431,1.421-0.78,2.16-1.052C264.536,156.857,273.745,162.012,277.214,166.107z"/>
		<path fill="#FFE4BE" d="M274.564,145.796c4.532,5.2,6.778,17.596,2.649,20.312c-3.469-4.096-12.678-9.25-20.31-6.416v-0.007
			c-0.72-5.357-1.281-12.177,4.275-15.124c2.695-1.427,8.1-2.041,11.04-0.646c0.369,0.171,0.727,0.396,1.076,0.673
			c0.482,0.477,0.912,0.886,1.255,1.196C274.559,145.79,274.559,145.79,274.564,145.796z"/>
		<path fill="#FFFFFF" d="M274.551,145.783c-0.343-0.311-0.772-0.72-1.255-1.196C273.732,144.918,274.155,145.32,274.551,145.783z"
			/>
		<path fill="#F4A999" d="M256.588,210.404c6.686,0.1,6.778,6.363,6.731,7.625c-0.006,0.146-0.013,0.219-0.013,0.219
			c-4.685,5.26-14.205,3.336-17.237-4.215C246.182,212.697,250.972,210.299,256.588,210.404z"/>
		<path fill="#FFE3BC" d="M247.562,106.944c0.542,13.836-20.613,45.223-33.397,42.875c-0.476-2.227-0.02-7.962,0.74-14.105
			c0.304-2.439,0.661-4.95,1.024-7.321c0.72-4.765,1.479-8.986,1.955-11.095c0.979-4.348,2.953-11.364,7.618-17.596
			C237.098,91.522,247.081,94.575,247.562,106.944z"/>
		<path fill="#FDDBAC" d="M243.439,201.63c2.2,2.518,3.344,6.448,2.63,12.403c-4.129-0.398-5.226-0.49-9.942-2.564
			c-11.801,0.316-12.573-0.126-17.158-2.399c-1.302-2.352-2.57-5.438-2.57-8.299c1.651-14.007,4.183-20.014,7.108-21.388
			C229.612,202.753,238.307,195.742,243.439,201.63z"/>
		<path fill="#F7D09E" d="M252.293,159.13c0,0-9.414,1.554-9.058,5.901c-3.211-4.486-5.795-10.341-7.294-17.953
			c0.727-0.535,1.473-1.104,2.227-1.698C238.168,145.38,242.932,156.93,252.293,159.13z"/>
		<path fill="#FADAAD" d="M232.143,149.754l0.132,0.191c-0.119,3.522-0.376,7.177-0.079,10.309c0,0-14.528,2.887-17.594-8.934
			c2.048,5.425,7.65,4.222,12.037,1.797C228.377,152.153,230.213,151.042,232.143,149.754z"/>
		<path fill="#F6D39D" d="M215.705,128.359l0.225,0.033c-0.363,2.371-0.721,4.882-1.024,7.321l-0.356-0.026
			c-4.314,0.548-15.771,6.607-20.601,19.182c-2.266,6.581-6.838,21.784-28.27,15.283c-1.031,3.627-3.112,7.082-5.424,10.076
			C155.603,186.24,150,190.403,150,190.403v0.007c-0.832-0.085-1.599-0.205-2.332-0.337c0.132-3.179-1.632-5.161-1.632-5.161
			c6.164-5.728,14.436-13.531,15.982-20.773l0.027-0.013c0.607,1.301,2.008,2.253,4.545,2.569c1.083,1.289,3.931,2.2,5.946,1.771
			c0.898-0.192,1.856-1.355,2.563-1.421c0.852-0.073,1.903,0.872,2.722,0.944c7.174,0.621,10.663-8.478,13.068-13.809
			c0.515-1.137,1.004-3,2.028-5.3h0.006c1.487-3.323,4.096-7.572,9.527-11.873C206.046,134.974,213.108,130.321,215.705,128.359z"/>
		<path fill="#FFEAD7" d="M211.37,195.795c0.331,2.307-1.083,5.386,0.675,9.238c0,0-17.225,0.693-23.652-0.258
			c-0.714-3.642-1.494-7.427-3.819-10.612c-2.94-4.03-9.765-6.666-14.311-6.666c-7.71,0-12.308,3.052-17.944,3.032
			c-0.838,0-1.605-0.047-2.319-0.119v-0.007c0,0,5.603-4.163,10.254-10.175l0.073,0.053c17.7,6.898,44.133-1.79,44.133-1.79
			c1.479,2.933,4.268,6.236,6.653,7.412C211.278,189.221,210.901,192.551,211.37,195.795z"/>
		<path fill="#CFCECE" d="M171.36,97.363c-6.606-13.103,3.838-22.261,11.066-25.056c5.596-2.161,11.489-2.121,16.868,1.262
			c4.929,3.099,7.221,7.87,5.47,13.559c-3.053,9.924-15.096,17.906-25.647,17.219c-0.529,3.826-2.901,6.139-6.984,6.984
			c-4.142,0.853-5.312-0.291-8.999,2.802c-2.9,2.424-4.855,4.268-8.86,2.392c-3.468-1.632-4.697-4.764-4.592-8.471
			c-0.336,0.37-9.097,4.506-16.212,0.621c-2.663-1.454-3.687-4.255-3.627-7.182h0.085c0,0,10.412-1.407,21.723,4.791
			c1.817-0.912,3.581-3.634,3.581-3.634C157.301,98.117,166.438,96.207,171.36,97.363z M199.142,82.146
			c-16.517-4.856-20.025,8.841-20.732,11.92C185.677,85.06,199.142,82.146,199.142,82.146z M167.647,105.953
			c0.561-1.256,3.482-3.429,2.445-4.876c-1.929-2.696-7.473-2.009-9.831-0.667c-2.379,1.355-6.527,6.555-1.672,7.526
			c4.374,0.192,5.88,3.767,7.459,2.115C166.385,109.7,167.429,106.449,167.647,105.953z"/>
		<path fill="#FBCDCC" d="M193.882,6.51c2.596,0.886,10.122,21.435,10.314,26.311c-2.518-4.321-7.969-10.677-11.748-13.869
			c2.557,5.009,7.658,12.568,7.446,18.494c-2.959-4.01-8.622-11.899-13.392-13.314c2.055,2.967,8.351,9.806,7.367,13.73
			c-1.321-1.011-4.777-3.436-4.777-3.436l2.55,4.791c0,0-2.445,0.938-3.945,0.713c0,0,0.905,0.853,1.282,1.321
			c-1.447,1.54-9.659,1.751-11.615,1.117C178.356,22.421,187.494,12.622,193.882,6.51z"/>
		<path fill="#331212" d="M178.409,94.066c0.708-3.079,4.215-16.776,20.732-11.92C199.142,82.146,185.677,85.06,178.409,94.066z"/>
		<path fill="#CFCECE" d="M193.823,62.892c-4.262-5.101-9.329-8.696-18.274-10.79C182.704,50.231,191.623,52.709,193.823,62.892z"/>
		<path fill="#FFFFFF" d="M174.339,141.402c0,0.562-0.039,1.109-0.125,1.659C174.201,142.553,174.241,141.996,174.339,141.402z"/>
		<path fill="#FBCDCC" d="M170.092,101.077c1.037,1.447-1.884,3.621-2.445,4.876c-0.218,0.496-1.262,3.747-1.599,4.097
			c-1.579,1.652-3.085-1.923-7.459-2.115c-4.855-0.971-0.707-6.171,1.672-7.526C162.619,99.068,168.163,98.381,170.092,101.077z
			 M163.756,105.385c2.741-1.144,4.604-2.915,4.168-3.972c-0.436-1.05-3.012-0.984-5.748,0.152
			c-2.741,1.143-4.604,2.914-4.168,3.972C158.444,106.587,161.02,106.521,163.756,105.385z"/>
		<path fill="#FCE4EE" d="M167.924,101.414c0.436,1.057-1.427,2.828-4.168,3.972c-2.736,1.136-5.312,1.202-5.748,0.152
			c-0.436-1.058,1.427-2.829,4.168-3.972C164.912,100.429,167.488,100.363,167.924,101.414z"/>
		<path fill="#CFCECE" d="M146.65,61.683c-2.431,1.652-7.716,3.945-10.901,14.867c0,0-0.225-2.947,0.046-4.638
			C136.073,70.22,138.108,62.905,146.65,61.683z"/>
		<path fill="#331212" d="M132.572,98.434c9.58-8.259,17.759,1.07,17.759,1.07S134.474,98.024,132.572,98.434z"/>
		<path fill="#CFCECE" d="M138.934,61.683c-0.284,0.41-0.555,0.813-0.82,1.209c0,0-24.808-17.729-35.762-17.233
			c10.65,3.879,33.312,21.131,33.312,21.131c-10.155,17.206-6.812,26.952-7.195,33.176c-2.055-0.449-6.29-4.645-7.539-6.35
			c0,0-3.105,0.277-3.911-0.793c0.575-0.079,2.134-0.951,2.92-0.912c-1.982-2.478-4.856-1.249-6.507-2.749
			c0.872,0.1,2.986-1.929,2.986-1.929l-4.043-2.385c0,0,1.671-0.529,2.392-0.146c-1.381-3.225-8.351-14.583-9.784-18.065
			c-1.89-4.599-4.843-13.439-5.372-22.056c-0.113-1.771,0.978-1.44,1.506-1.354C120.065,46.445,138.531,61.669,138.934,61.683z
			 M124.829,84.703c0.641-6.092-21.816-37.557-23.058-36.731c0.251,6.693,13.544,33.123,13.544,33.123
			C121.241,81.822,123.467,83.243,124.829,84.703z"/>
		<path fill="#EAEAEA" d="M138.114,62.892c-0.898,1.341-1.711,2.643-2.451,3.898c0,0-22.661-17.252-33.312-21.131
			C113.306,45.164,138.114,62.892,138.114,62.892z"/>
		<path fill="#FBCDCC" d="M101.771,47.972c1.242-0.826,23.699,30.639,23.058,36.731c-1.361-1.46-3.588-2.881-9.514-3.608
			C115.314,81.095,102.021,54.666,101.771,47.972z"/>
		<path fill="#EAEAEA" d="M94.173,124.46c0,0-2.577,2.327-5.338-0.535c7.268-11.53,19.054-18.93,21.723-20.502
			c1.976-1.163,4.42-2.986,6.904-3.918c0,5.227,4.459,7.387,7.571,8.623c-8.126,0.006-20.23,7.209-28.469,19.592
			C95.857,126.608,95.025,125.531,94.173,124.46z"/>
		<path fill="#CFCECE" d="M96.564,127.725c1.995,3.125,3,6.463,0.674,10.288c-1.334,2.193-2.603,3.225-3.852,3.476
			c-1.889,0.39-3.739-0.991-5.728-2.821c2.379,1.883,9.812-3.495,6.515-14.207c0.853,1.071,1.685,2.148,2.392,3.259V127.725z"/>
		<path fill="none" stroke="#AEADAE" stroke-miterlimit="10" d="M87.646,138.66c2.392,9.739-4.162,3.812-4.162,3.812
			c-0.271-0.773-0.43-1.539-0.371-2.267c0.496-6.052,2.722-11.522,5.722-16.281c2.762,2.862,5.338,0.535,5.338,0.535
			c3.297,10.712-4.136,16.09-6.515,14.207C87.652,138.667,87.652,138.667,87.646,138.66z"/>
		<path fill="#CFCECE" d="M93.4,141.554c0.139,2.234-2.604,7.771-4.565,9.053c0,0-3.29-3.767-3.548-4.314
			c-0.535-1.143-1.334-2.484-1.803-3.819c0,0,6.554,5.927,4.162-3.812c0.006,0.007,0.006,0.007,0.013,0.007
			c1.989,1.83,3.839,3.211,5.728,2.821L93.4,141.554z"/>
		<path fill="#FFDCAC" d="M91.2,196.14c0.152,2.927,0.965,8.522,0.661,8.927c-39.859-7.711-62.917-5.102-70.766-1.726
			c-0.515,0.225-1.017,0.449-1.513,0.681c0.417-0.437,0.687-2.974,0.892-3.534c22.761-8.319,70.719-4.348,70.719-4.348H91.2z"/>
		<path fill="#FFE3BC" d="M89.185,185.189c0.575,3.226,2.345,6.205,2.008,9.614c-0.033,0.311-0.026,0.772,0.006,1.336h-0.006
			c0,0-47.958-3.972-70.719,4.348c-0.588,0.053-1.335-0.179-1.916-0.112c0.984-0.635,1.223-1.586,1.566-2.524
			c-0.396-0.007-0.839-0.086-1.236-0.119c0.602-1.037,2.953-5.379,3.191-5.663c0.006-0.006,0.014-0.006,0.02-0.014
			c0.667-0.296,1.361-0.594,2.074-0.885C43.413,183.373,86.502,185.877,89.185,185.189z"/>
		<path fill="#F6F5D8" d="M22.08,192.068c-0.238,0.284-2.59,4.626-3.191,5.663c0.397,0.033,0.84,0.112,1.236,0.119
			c-0.343,0.938-0.582,1.89-1.566,2.524c0.581-0.066,1.328,0.165,1.916,0.112c-0.205,0.561-0.475,3.098-0.892,3.534
			c-12.474,5.821-18.796,14.504-18.129,16.056C-0.146,216.358,1.552,201.299,22.08,192.068z"/>
	</g>
	<g>
		<path fill="none" stroke="#BD972E" stroke-miterlimit="10" d="M214.602,151.32c2.048,5.425,7.65,4.222,12.037,1.797
			c1.738-0.964,3.574-2.075,5.504-3.363c1.229-0.812,2.49-1.698,3.799-2.676c0.727-0.535,1.473-1.104,2.227-1.698
			c1.09-0.858,2.2-1.771,3.33-2.734c8.139-6.972,14.441-15.383,17.111-25.533c1.44-5.478,0.819-20.925,8.661-11.82"/>
		<path fill="none" stroke="#BD972E" stroke-miterlimit="10" d="M241.888,88.278c-7.585,2.267-12.791,6.607-16.385,11.424
			c-4.665,6.231-6.64,13.248-7.618,17.596c-0.476,2.108-1.235,6.33-1.955,11.095c-0.363,2.371-0.721,4.882-1.024,7.321
			c-0.76,6.144-1.216,11.879-0.74,14.105c0.119,0.536,0.258,1.025,0.43,1.468"/>
		<path fill="none" stroke="#BD972E" stroke-miterlimit="10" d="M257.969,90.716c2.034,1.229,5.417,2.716,8.212,4.665
			c2.425,1.692,4.42,3.74,4.724,6.277"/>
		<path fill="none" stroke="#BD972E" stroke-miterlimit="10" d="M263.307,129.079c0.356-3.931,10.564-15.944,14.872-11.894
			c4.248,3.997-4.394,5.339-6.356,6.204c-3.369,1.494-5.701,3.173-8.503,5.71c-0.112,0.099-0.225,0.204-0.343,0.31"/>
		<path fill="none" stroke="#BD972E" stroke-miterlimit="10" d="M344.702,131.709c0.958,1.063,1.751,2.28,2.187,3.688
			c0.589-2.32,0.139-4.771-0.806-6.958"/>
		<path fill="none" stroke="#BD972E" stroke-miterlimit="10" d="M346.083,128.432c-1.698-3.924-4.994-7.004-6.798-6.951
			c-2.809,0.079-3.02,1.321-2.974,2.973c0.053,1.812,5.173,3.675,8.391,7.249"/>
		<path fill="none" stroke="#AEADAE" stroke-miterlimit="10" d="M96.564,127.719c-0.707-1.11-1.539-2.188-2.392-3.259"/>
		<path fill="none" stroke="#AEADAE" stroke-miterlimit="10" d="M87.658,138.667c1.989,1.83,3.839,3.211,5.728,2.821
			c1.249-0.251,2.518-1.282,3.852-3.476c2.326-3.825,1.321-7.163-0.674-10.288"/>
		<path fill="none" stroke="#AEADAE" stroke-miterlimit="10" d="M86.245,137.339c0.476,0.456,0.938,0.898,1.401,1.321"/>
		<path fill="none" stroke="#AEADAE" stroke-miterlimit="10" d="M96.564,127.725v-0.006c8.239-12.383,20.342-19.585,28.469-19.592"
			/>
		<path fill="none" stroke="#AEADAE" stroke-miterlimit="10" d="M117.462,99.504c0,5.227,4.459,7.387,7.571,8.623
			c0,0,0,0.006,0.006,0c0.43,0.178,0.833,0.33,1.196,0.469c7.849,3.053,14.072,8.663,18.809,15.276
			c1.672,2.334,3.151,4.784,4.46,7.295"/>
		<path fill="none" stroke="#AEADAE" stroke-miterlimit="10" d="M88.834,150.606c1.962-1.282,4.704-6.818,4.565-9.053"/>
		<path fill="none" stroke="#AEADAE" stroke-miterlimit="10" d="M192.924,148.882c1.487-3.323,4.096-7.572,9.527-11.873"/>
		<path fill="none" stroke="#AEADAE" stroke-miterlimit="10" d="M227.848,82.331c-8.364,0-13.227,3.858-16.734,8.755
			c-2.881,4.024-13.009,20.047-17.131,25.459c-0.291,0.376-0.548,0.707-0.773,0.971c-3.7,4.38-8.464,6.772-12.414,10.665
			c-3.409,3.363-4.902,5.491-5.762,10.149c-0.211,1.143-0.443,2.153-0.694,3.072c-1.446,5.267-3.654,7.295-7.155,10.791
			c-2.021,2.015-4.183,4.98-5.081,7.71c-0.516,1.553-0.621,3.033-0.059,4.223c0.607,1.301,2.008,2.253,4.545,2.569
			c1.083,1.289,3.931,2.2,5.946,1.771c0.898-0.192,1.856-1.355,2.563-1.421c0.852-0.073,1.903,0.872,2.722,0.944
			c7.174,0.621,10.663-8.478,13.068-13.809c0.515-1.137,1.004-3,2.028-5.3"/>
		<path fill="none" stroke="#AEADAE" stroke-miterlimit="10" d="M201.698,137.418c0.231-0.118,0.482-0.257,0.753-0.409
			c3.595-2.035,10.657-6.688,13.254-8.649"/>
		<path fill="none" stroke="#BD972E" stroke-miterlimit="10" d="M199.103,138.621c0.924-0.371,1.783-0.774,2.562-1.19"/>
		<path fill="none" stroke="#AEADAE" stroke-miterlimit="10" d="M191.292,140.643c2.973-0.396,5.583-1.124,7.79-2.009"/>
		<path fill="none" stroke="#AEADAE" stroke-miterlimit="10" d="M176.097,155.51c-1.163,2.504-2.491,5.108-2.458,7.618
			c0.019,1.341,0.422,2.662,1.46,3.918"/>
		<path fill="none" stroke="#AEADAE" stroke-miterlimit="10" d="M166.59,166.695c-0.39-1.321-0.654-2.464-0.799-3.501
			c-0.356-2.689,0.125-4.652,1.467-7.03c1.242-2.2,6.131-7.275,6.957-13.103c0.086-0.55,0.125-1.098,0.125-1.659"/>
		<path fill="none" stroke="#AEADAE" stroke-miterlimit="10" d="M192.924,148.882h-0.006c-0.826,0-2.841,0.271-5.252,0.403
			c-5.576,0.31-13.299-0.106-13.451-6.224c-0.014-0.509,0.026-1.065,0.125-1.659"/>
		<path fill="none" stroke="#AEADAE" stroke-miterlimit="10" d="M120.93,93.617c1.249,1.705,5.484,5.9,7.539,6.35
			c0.383-6.224-2.96-15.97,7.195-33.176c0.74-1.255,1.553-2.557,2.451-3.898c0.265-0.396,0.536-0.8,0.82-1.209"/>
		<path fill="none" stroke="#AEADAE" stroke-miterlimit="10" d="M155.233,102.649c2.643-15.581-16.762-17.173-23.078-8.339
			c-1.368,1.91-2.273,4.592-2.312,7.183c-0.06,2.927,0.964,5.729,3.627,7.182c7.115,3.885,15.876-0.251,16.212-0.621
			c-0.105,3.707,1.124,6.839,4.592,8.471c4.004,1.876,5.96,0.033,8.86-2.392c3.687-3.092,4.856-1.949,8.999-2.802
			c4.083-0.846,6.455-3.159,6.984-6.984c10.551,0.688,22.594-7.294,25.647-17.219c1.751-5.689-0.541-10.46-5.47-13.559
			c-5.378-3.383-11.272-3.422-16.868-1.262c-7.228,2.795-17.673,11.953-11.066,25.056
			C166.438,96.207,157.301,98.117,155.233,102.649z"/>
		<path fill="none" stroke="#AEADAE" stroke-miterlimit="10" d="M158.589,107.935c4.374,0.192,5.88,3.767,7.459,2.115
			c0.336-0.35,1.38-3.601,1.599-4.097c0.561-1.256,3.482-3.429,2.445-4.876c-1.929-2.696-7.473-2.009-9.831-0.667
			C157.882,101.764,153.733,106.964,158.589,107.935z"/>
		<path fill="none" stroke="#BD972E" stroke-miterlimit="10" d="M284.409,198.789c-2.194-1.652-10.631-6.377-15.725-8.782
			c2.167-6.568,8.14-8.774,13.451-11.463c0.198-0.1,0.396-0.205,0.588-0.317c12.995-7.195,11.252-27.897,10.975-40.307
			c-0.331-14.569-8.055-29.767-11.628-34.346c-2.009-2.577-7.506-8.438-15.89-8.193"/>
		<path fill="none" stroke="#BD972E" stroke-miterlimit="10" d="M296.4,212.724c-3.053-1.368-4.691-3.237-5.563-4.955
			c-1.222-2.419-0.932-4.54-0.932-4.54c-0.481-0.984-5.496-4.439-5.496-4.439s3.461-8.325,13.913-9.885
			c12.368-1.844,19.233,3.383,21.889,7.658c0.674,1.063,1.07,2.067,1.235,2.887c1.051,5.332-4.314,10.188-9.521,12.508
			c11.231-0.277,17.304-3.06,20.501-6.481c4.394-4.711,3.35-10.639,2.814-12.964c-0.575-2.478-1.856-4.341-3.501-5.915
			c-1.414-1.374-3.105-2.522-4.816-3.679c-2.993-2.009-7.341-3.409-9.852-5.882c-6.315-6.224-5.252-19.043-3.561-26.813
			c2.272-10.492,6.64-18.447,11.958-27.513c3.984-6.78,12.837-15.455,21.77-14.894c0.984,0.06,1.969,0.238,2.946,0.535
			c7.268,2.227,12.019,9.013,13.247,10.282"/>
		<path fill="none" stroke="#BD972E" stroke-miterlimit="10" d="M286.893,216.001c2.644-2.141,8.192,0.007,9.508-3.277
			c3.25-0.542,5.299,1.798,8.78,1.263c1.771-0.277,4.394-2.049,6.745-2.029"/>
		<path fill="none" stroke="#BD972E" stroke-miterlimit="10" d="M286.503,216.318c0.112-0.093,0.225-0.179,0.331-0.271"/>
		<path fill="none" stroke="#BD972E" stroke-miterlimit="10" d="M88.834,150.606c-1.711,5.451-1.916,12.383-1.929,18.779
			c-0.013,5.51,0.39,10.664,2.28,15.804c-2.683,0.688-45.772-1.816-65.011,5.98c-0.713,0.291-1.407,0.589-2.074,0.885
			c-0.006,0.008-0.014,0.008-0.02,0.014c-20.527,9.23-22.225,24.29-20.626,28.009c-0.667-1.552,5.655-10.234,18.129-16.056
			c0.496-0.231,0.998-0.456,1.513-0.681c7.849-3.376,30.907-5.985,70.766,1.726c1.705,3.297,10.901,10.571,32.043,6.606
			c8.477-1.592,16.438-3.925,24.987-0.746c8.45,3.139,14.35,5.107,22.186-0.528c2.623,4.493,8.826,0.277,10.63-2.558
			c-0.463,0.721,3.825,0.456,4.274,0.225c0.964-0.516,2.227-2.193,2.412-3.29c6.428,0.951,23.652,0.258,23.652,0.258
			s0.905,4.301,6.924,4.036c4.585,2.273,5.357,2.716,17.158,2.399c4.717,2.074,5.813,2.166,9.942,2.564
			c3.032,7.551,12.553,9.475,17.237,4.215c6.825,3.832,12.811,2.114,14.277-0.165c3.006,1.783,6.408,0.218,8.82-1.685"/>
		<path fill="none" stroke="#AEADAE" stroke-miterlimit="10" d="M227.835,63.328c-0.819,1.011-1.863,1.771-3.29,1.876
			c0.396-7.54-0.41-12.772-2.861-20.589c-0.099,2.432-0.171,5.722-2.239,7.124c-0.846-12.138-2.663-15.924-6.422-24.746
			c-0.681-1.592-2.762-5.292-5.305-9.409c-4.533-7.341-10.512-15.997-12.573-16.36c-1.044-0.185-3.898,3.747-7.043,7.652
			c-6.131,7.605-13.57,19.268-12.335,34.689c-24.062,0.608-36.833,18.118-36.833,18.118c-0.403-0.013-18.869-15.237-37.818-18.455
			c-0.528-0.086-1.619-0.416-1.506,1.354c0.529,8.616,3.481,17.457,5.372,22.056c1.434,3.482,8.403,14.84,9.784,18.065
			c-0.72-0.383-2.392,0.146-2.392,0.146l4.043,2.385c0,0-2.114,2.029-2.986,1.929c1.651,1.5,4.525,0.271,6.507,2.749
			c-0.787-0.04-2.345,0.833-2.92,0.912c0.806,1.07,3.911,0.793,3.911,0.793s-0.152,4.097,0.218,5.345
			c-1.203-0.165-2.451,0.08-3.687,0.542c-2.484,0.932-4.929,2.756-6.904,3.918c-2.669,1.573-14.456,8.973-21.723,20.502
			c-3,4.759-5.226,10.229-5.722,16.281c-0.059,0.728,0.1,1.493,0.371,2.267c0.469,1.335,1.269,2.677,1.803,3.819
			c0.258,0.548,3.548,4.314,3.548,4.314"/>
		<path fill="none" stroke="#AEADAE" stroke-miterlimit="10" d="M227.848,82.331c0,0,4.572-16.565,2.095-22.684
			c-0.581,1.196-1.216,2.583-2.101,3.674"/>
		<path fill="none" stroke="#AEADAE" stroke-miterlimit="10" d="M241.888,88.278c-4.896-5.121-14.04-5.947-14.04-5.947"/>
		<path fill="none" stroke="#BD972E" stroke-miterlimit="10" d="M286.483,73.609c0,0-19.86,4.427-28.515,17.106
			c-3.846-1.685-8.471-3.535-16.081-2.438"/>
		<path fill="none" stroke="#AEADAE" stroke-miterlimit="10" d="M331.026,80.184c0.218-4.235-0.258-9.786-2.53-14.648
			c-2.947-6.324-8.946-11.498-20.429-11.121c-19.192,0.621-21.584,19.195-21.584,19.195"/>
		<path fill="none" stroke="#BD972E" stroke-miterlimit="10" d="M332.717,205.568c3.991,1.447,13.882,0.819,18.13,0.819
			c3.362,0,6.329-0.112,9.229-0.205c1.658-0.053,3.297-0.099,4.975-0.112c0.437-0.007,0.879-0.007,1.321-0.007
			c1.493,0,3.469,0.014,5.511-0.125c3.171-0.205,6.487-0.754,8.364-2.194c1.546-1.183,2.404-3.046,2.497-4.955
			c0.119-2.312-0.872-4.699-3.105-6.026c3.072-3.925-1.295-9.092-5.668-8.762c0,0,1.156-4.295-4.13-7.097
			c7.618-4.525,16.583-11.213,19.569-19.882c3.132-9.085,0.984-19.485-0.892-28.604c-1.414-6.892-5.762-11.603-11.126-15.733
			c-2.253-1.731-3.799-3.112-6.646-3.694c-2.979-0.601-7.313-0.119-10.221,0.562c-3.72-5.504-10.121-17.536-24.214-26.397
			c-1.651-1.038-3.409-2.036-5.285-2.974"/>
		<path fill="none" stroke="#BD972E" stroke-miterlimit="10" d="M203.516,175.992c0.165,0.753,0.495,1.612,0.944,2.499
			c1.479,2.933,4.268,6.236,6.653,7.412"/>
		<path fill="none" stroke="#BD972E" stroke-miterlimit="10" d="M214.595,166.695c-6.567,5.221-3.812,12.568-3.481,19.208
			c0.165,3.317-0.212,6.647,0.257,9.892c0.331,2.307-1.083,5.386,0.675,9.238"/>
		<path fill="none" stroke="#BD972E" stroke-miterlimit="10" d="M120.93,194.163c1.249-1.388,2.636-2.57,4.109-3.581
			c7.842-5.386,17.938-5.762,20.997-5.67c6.164-5.728,14.436-13.531,15.982-20.773"/>
		<path fill="none" stroke="#BD972E" stroke-miterlimit="10" d="M123.903,196.807c2.755-2.644,8.358-6.026,14.865-7.195
			c3.799-0.675,6.099-0.034,8.899,0.462c0.733,0.132,1.5,0.252,2.332,0.337c0.714,0.072,1.48,0.119,2.319,0.119
			c5.636,0.02,10.234-3.032,17.944-3.032c4.545,0,11.37,2.636,14.311,6.666c2.325,3.186,3.105,6.971,3.819,10.612"/>
		<path fill="none" stroke="#BD972E" stroke-miterlimit="10" d="M161.344,199.667c4.73,1.104,14.105,3.528,9.732,10.731"/>
		<path fill="none" stroke="#BD972E" stroke-miterlimit="10" d="M169.821,194.163c6.144,1.48,18.717,4.407,11.886,13.678"/>
		<path fill="none" stroke="#BD972E" stroke-miterlimit="10" d="M91.86,205.066c0.304-0.404-0.508-6-0.661-8.927
			c-0.033-0.563-0.039-1.025-0.006-1.336c0.337-3.409-1.434-6.389-2.008-9.614"/>
		<path fill="none" stroke="#BD972E" stroke-miterlimit="10" d="M167.185,152.193c0.258-4.838,1.757-11.591,1.314-16.506"/>
		<path fill="none" stroke="#AEADAE" stroke-miterlimit="10" d="M145.045,123.872c0.879-0.33,1.936-0.469,3.085-0.495
			c2.993-0.073,6.594,0.628,9.137,0.746c4.077,0.191,8.589,0.357,12.883,0c6.845-0.568,13.656-9.25,23.831-7.578"/>
		<path fill="none" stroke="#BD972E" stroke-miterlimit="10" d="M274.564,145.796c4.532,5.2,6.778,17.596,2.649,20.312"/>
		<path fill="none" stroke="#BD972E" stroke-miterlimit="10" d="M256.904,159.685c-0.72-5.357-1.281-12.177,4.275-15.124
			c2.695-1.427,8.1-2.041,11.04-0.646c0.369,0.171,0.727,0.396,1.076,0.673c0.437,0.331,0.859,0.733,1.255,1.196"/>
		<path fill="none" stroke="#BD972E" stroke-miterlimit="10" d="M266.94,136.018c0.509,2.385,4.017,6.264,6.355,8.569
			c0.482,0.477,0.912,0.886,1.255,1.196c0.008,0.007,0.008,0.007,0.014,0.013"/>
		<path fill="none" stroke="#BD972E" stroke-miterlimit="10" d="M326.224,169.193c-2.57-3.767-0.912-9.918,2.239-14.41
			c2.121-3.033,4.922-5.32,7.564-5.631c8.18-0.958,10.882,7.361,11.886,13.976c0.033,0.219,0.066,0.43,0.093,0.641"/>
		<path fill="none" stroke="#BD972E" stroke-miterlimit="10" d="M232.274,149.945c-0.119,3.522-0.376,7.177-0.079,10.309
			c0.172,1.837,0.535,3.495,1.229,4.85c9.25,18.084,22.972,22.525,26.005,23.291"/>
		<path fill="none" stroke="#BD972E" stroke-miterlimit="10" d="M248.111,193.172c1.09-1.162,5.569-4.235,11.317-4.777
			c2.86-0.27,6.031,0.08,9.256,1.612"/>
		<path fill="none" stroke="#BD972E" stroke-miterlimit="10" d="M331.74,186.597c5.767-6.831,18.915-10.782,30.152-10.617
			c2.815,0.039,5.518,0.343,7.948,0.925"/>
		<path fill="none" stroke="#BD972E" stroke-miterlimit="10" d="M360.525,109.554c1.262,2.517,2.227,5.656,2.907,9.079
			c0.304,1.514,0.548,3.086,0.733,4.678c0.944,7.981,0.481,16.624-1.348,22.288c-0.893,2.755-1.354,2.471-2.247,5.166
			c-1.327,4.031-0.944,5.947,1.428,9.039c1.764,2.307,2.074,5.484,1.737,8.597c-0.119,1.184-0.337,2.366-0.607,3.476
			c-0.363,1.533-0.812,2.94-1.236,4.097"/>
		<path fill="none" stroke="#BD972E" stroke-miterlimit="10" d="M363.135,171.876c0.859,1.058,12.982-9.448,12.157-30.243
			c-0.172-4.182-2.637-18.335-10.697-18.335"/>
		<path fill="none" stroke="#BD972E" stroke-miterlimit="10" d="M378.344,138.99c-2.656-7.076-7.082-15.818-13.749-15.692
			c-0.139-0.007-0.283,0-0.422,0.013"/>
		<path fill="none" stroke="#BD972E" stroke-miterlimit="10" d="M286.483,73.609c0.575-0.205,1.195-0.383,1.85-0.536
			c5.787-1.387,14.158-1.004,17.092-0.951"/>
		<path fill="none" stroke="#AEADAE" stroke-miterlimit="10" d="M317.8,74.885c5.569,3.297,7.062,8.914,7.492,13.023
			c0.053,0.476,0.086,0.925,0.112,1.355c0.132,2.194,0.02,3.707,0.283,3.753c0.284,0.046,0.833-0.654,1.474-1.771
			c1.626-2.822,3.876-8.675,3.883-11.443"/>
		<path fill="none" stroke="#BD972E" stroke-miterlimit="10" d="M305.425,72.123c2.577-0.027,4.823,0.198,6.772,0.627
			c2.22,0.476,4.063,1.209,5.603,2.135"/>
		<path fill="none" stroke="#BD972E" stroke-miterlimit="10" d="M348.006,163.769c-7.399-3.905-18.75,1.579-21.782,5.425
			c-0.694,0.879-0.958,1.672-0.642,2.247C328.879,177.479,334.825,164.76,348.006,163.769z"/>
		<path fill="#161616" stroke="#BD972E" stroke-miterlimit="10" d="M277.214,166.107c1.354,1.599,1.837,3.033,1.005,3.773
			c-1.863,1.652-7.883-4.804-9.296-5.781c-4.314-2.967-9.078-3.073-14.179-3.356c0.7-0.431,1.421-0.78,2.16-1.052
			C264.536,156.857,273.745,162.012,277.214,166.107z"/>
		<path fill="none" stroke="#BD972E" stroke-miterlimit="10" d="M147.668,190.073c0.132-3.179-1.632-5.161-1.632-5.161"/>
		<path fill="none" stroke="#BD972E" stroke-miterlimit="10" d="M371.05,184.231c-0.958-2.12-4.076-2.774-6.963-1.473
			c-2.888,1.308-4.447,4.083-3.489,6.204c0.959,2.115,4.077,2.775,6.964,1.467C370.449,189.129,372.008,186.353,371.05,184.231z"/>
		<path fill="none" stroke="#BD972E" stroke-miterlimit="10" d="M365.051,206.07c1.051-1.917-1.011-6.277-4.915-10.176
			c-4.195-4.189-8.926-6.257-10.571-4.612c-1.645,1.651,0.43,6.377,4.625,10.572c1.969,1.969,4.057,3.463,5.887,4.328"/>
		<path fill="none" stroke="#BD972E" stroke-miterlimit="10" d="M376.561,191.468c-0.959-2.114-4.077-2.775-6.964-1.467
			c-2.888,1.301-4.446,4.076-3.488,6.198c0.958,2.12,4.076,2.774,6.957,1.466C375.952,196.364,377.519,193.588,376.561,191.468z"/>
		<path fill="none" stroke="#BD972E" stroke-miterlimit="10" d="M382.744,198.789c-1.949-2.227-5.695-1.658-7.638-0.535
			c-4.109,2.372-4.182,5.562-3.224,7.685"/>
		<path fill="none" stroke="#BD972E" stroke-miterlimit="10" d="M263.333,217.845c0.178-1.718,1.342-8.425,9.005-9.858
			c4.143-0.779,6.065,0.661,6.699,2.755c0.707,2.353-0.218,5.545-1.453,7.342"/>
		<path fill="none" stroke="#BD972E" stroke-miterlimit="10" d="M263.319,218.029c0.047-1.262-0.046-7.525-6.731-7.625
			c-5.616-0.105-10.406,2.293-10.519,3.629"/>
		<path fill="none" stroke="#BD972E" stroke-miterlimit="10" d="M279.281,211.343c0,0,3.191-4.664,11.556-3.574"/>
		<path fill="none" stroke="#BD972E" stroke-miterlimit="10" d="M286.404,216.398c0.032-0.027,0.065-0.054,0.099-0.08
			c0.112-0.086,0.225-0.172,0.331-0.271c0.019-0.014,0.039-0.026,0.059-0.047c3.793-3.264,3.944-8.232,3.944-8.232"/>
		<path fill="none" stroke="#BD972E" stroke-miterlimit="10" d="M279.281,211.343c0,0-0.053-0.225-0.165-0.621
			c-0.555-2.062-2.51-8.702-5.238-11.933"/>
		<path fill="none" stroke="#BD972E" stroke-miterlimit="10" d="M263.307,218.248c0,0,0.007-0.073,0.013-0.219
			c0.007-0.053,0.014-0.112,0.014-0.185c0.159-2.398,0.853-14.735-1.731-16.03"/>
		<path fill="#161616" stroke="#AEADAE" stroke-miterlimit="10" d="M178.409,94.066c0.708-3.079,4.215-16.776,20.732-11.92
			C199.142,82.146,185.677,85.06,178.409,94.066z"/>
		<path fill="none" stroke="#AEADAE" stroke-miterlimit="10" d="M167.924,101.414c0.436,1.057-1.427,2.828-4.168,3.972
			c-2.736,1.136-5.312,1.202-5.748,0.152c-0.436-1.058,1.427-2.829,4.168-3.972C164.912,100.429,167.488,100.363,167.924,101.414z"
			/>
		<path fill="#161616" stroke="#AEADAE" stroke-miterlimit="10" d="M150.331,99.504c0,0-15.856-1.48-17.759-1.07
			C142.151,90.174,150.331,99.504,150.331,99.504z"/>
		<path fill="none" stroke="#AEADAE" stroke-miterlimit="10" d="M171.36,97.363c3.786,0.515,5.649,0.991,6.719,1.87
			c10.161-11.616,22.714-12.607,22.714-12.607"/>
		<path fill="none" stroke="#AEADAE" stroke-miterlimit="10" d="M155.233,102.649c0,0-1.764,2.722-3.581,3.634
			c-11.311-6.198-21.723-4.791-21.723-4.791"/>
		<path fill="none" stroke="#AEADAE" stroke-miterlimit="10" d="M83.483,142.473c0,0,6.554,5.927,4.162-3.812"/>
		<path fill="none" stroke="#AEADAE" stroke-miterlimit="10" d="M87.646,138.66c0.006,0.007,0.006,0.007,0.013,0.007
			c2.379,1.883,9.812-3.495,6.515-14.207"/>
		<path fill="none" stroke="#AEADAE" stroke-miterlimit="10" d="M94.173,124.453v0.007c0,0-2.577,2.327-5.338-0.535"/>
		<path fill="none" stroke="#AEADAE" stroke-miterlimit="10" d="M162.018,159.691c0,0,0.027,0.079,0.086,0.212
			c0.317,0.76,1.546,3.323,3.574,3.218"/>
		<path fill="none" stroke="#AEADAE" stroke-miterlimit="10" d="M165.678,163.121c0,0,0.04,0.026,0.112,0.073
			c0.688,0.416,4.519,2.544,7.849-0.066"/>
		<path fill="none" stroke="#AEADAE" stroke-miterlimit="10" d="M173.64,163.128c9.176,0.972,14.026-13.843,14.026-13.843"/>
		<path fill="none" stroke="#AEADAE" stroke-miterlimit="10" d="M187.666,149.285c2.187-5.26,8.001-8.894,11.417-10.651
			c0.007-0.007,0.013-0.007,0.021-0.013c1.387-0.714,2.378-1.117,2.562-1.19c0.014,0,0.021-0.006,0.033-0.013"/>
	</g>
</g>
</svg>
