<?xml version="1.0" encoding="utf-8"?>
<!-- Generator: Adobe Illustrator 16.0.1, SVG Export Plug-In . SVG Version: 6.00 Build 0)  -->
<!DOCTYPE svg PUBLIC "-//W3C//DTD SVG 1.1//EN" "http://www.w3.org/Graphics/SVG/1.1/DTD/svg11.dtd">
<svg version="1.1" id="Layer_1" xmlns="http://www.w3.org/2000/svg" xmlns:xlink="http://www.w3.org/1999/xlink" x="0px" y="0px"
	 width="512px" height="512px" viewBox="0 0 512 512" enable-background="new 0 0 512 512" xml:space="preserve">
<path d="M255.992,81.009C159.344,81.009,81,159.353,81,256s78.343,174.991,174.991,174.991C352.656,430.991,431,352.647,431,256
	S352.656,81.009,255.992,81.009z M255.992,413.491c-86.837,0-157.49-70.653-157.49-157.491s70.653-157.49,157.49-157.49
	C342.847,98.51,413.5,169.162,413.5,256S342.847,413.491,255.992,413.491z"/>
<path d="M379.694,216.461c-13.331-12.698-27.38-13.331-42.557-8.067c-30.285,10.528-60.518,21.227-90.982,31.31
	c-4.512,1.503-10.221,0.923-15.04-0.171c-11.775-2.701-23.278-6.597-35.053-9.331c-7.878-1.846-12.066-3.965-8.272-13.536
	c4.641-11.673,1.24-22.354-7.118-28.917c-9.973-7.819-25.534-8.887-36.353-2.496c-8.896,5.265-13.45,16.15-11.664,27.892
	c1.922,12.647,14.553,22.628,30.652,23.585c7.836,0.513,15.741-0.137,23.594,0.239c11.041,0.546,21.628,3.315,28.558,12.613
	c3.896,5.229,4.991,7.383,0,12.852c-7.819,8.536-17.518,12.058-28.558,12.57c-7.853,0.411-15.758-0.239-23.594,0.24
	c-16.099,0.99-28.729,10.938-30.652,23.619c-1.786,11.724,2.769,22.629,11.664,27.892c10.819,6.393,26.379,5.299,36.353-2.528
	c8.357-6.563,11.758-17.228,7.118-28.918c-3.793-9.536,0.394-11.69,8.272-13.536c11.775-2.7,23.278-6.631,35.053-9.298
	c4.819-1.127,10.528-1.709,15.04-0.205c30.463,10.084,60.697,20.815,90.982,31.345c15.177,5.264,29.226,4.615,42.557-8.102
	c-34.147-12.853-104.253-39.231-104.972-39.504C275.441,255.735,345.547,229.312,379.694,216.461z M162.156,228.287
	c-11.066-0.171-21.159-10.528-20.928-21.465c0.205-9.844,8.52-17.117,19.45-16.997c12.1,0.12,19.885,8.195,19.688,20.415
	C180.194,221.007,172.683,228.425,162.156,228.287z M160.677,322.175c-10.93,0.104-19.244-7.144-19.45-16.988
	c-0.23-10.938,9.861-21.329,20.927-21.466c10.527-0.171,18.04,7.281,18.21,18.048C180.562,313.972,172.777,322.038,160.677,322.175z
	"/>
</svg>
