<?xml version="1.0" encoding="utf-8"?>
<!-- Generator: Adobe Illustrator 16.0.0, SVG Export Plug-In . SVG Version: 6.00 Build 0)  -->
<!DOCTYPE svg PUBLIC "-//W3C//DTD SVG 1.1//EN" "http://www.w3.org/Graphics/SVG/1.1/DTD/svg11.dtd">
<svg version="1.1" xmlns="http://www.w3.org/2000/svg" xmlns:xlink="http://www.w3.org/1999/xlink" x="0px" y="0px" width="512px"
	 height="512px" viewBox="0 0 512 512" enable-background="new 0 0 512 512" xml:space="preserve">
<g id="Layer_1" display="none">
	<g>
		<line display="inline" fill="none" stroke="#B35047" x1="32" y1="0" x2="32" y2="512"/>
		<line display="inline" fill="none" stroke="#B35047" x1="64" y1="0" x2="64" y2="512"/>
		<line display="inline" fill="none" stroke="#B35047" x1="96" y1="0" x2="96" y2="512"/>
		<line display="inline" fill="none" stroke="#B35047" x1="128" y1="0" x2="128" y2="512"/>
		<line display="inline" fill="none" stroke="#B35047" x1="160" y1="0" x2="160" y2="512"/>
		<line display="inline" fill="none" stroke="#B35047" x1="192" y1="0" x2="192" y2="512"/>
		<line display="inline" fill="none" stroke="#B35047" x1="224" y1="0" x2="224" y2="512"/>
		<line display="inline" fill="none" stroke="#B35047" x1="256" y1="0" x2="256" y2="512"/>
		<line display="inline" fill="none" stroke="#B35047" x1="288" y1="0" x2="288" y2="512"/>
		<line display="inline" fill="none" stroke="#B35047" x1="320" y1="0" x2="320" y2="512"/>
		<line display="inline" fill="none" stroke="#B35047" x1="352" y1="0" x2="352" y2="512"/>
		<line display="inline" fill="none" stroke="#B35047" x1="384" y1="0" x2="384" y2="512"/>
		<line display="inline" fill="none" stroke="#B35047" x1="416" y1="0" x2="416" y2="512"/>
		<line display="inline" fill="none" stroke="#B35047" x1="448" y1="0" x2="448" y2="512"/>
		<line display="inline" fill="none" stroke="#B35047" x1="480" y1="0" x2="480" y2="512"/>
		<line display="inline" fill="none" stroke="#B35047" x1="0" y1="32" x2="512" y2="32"/>
		<line display="inline" fill="none" stroke="#B35047" x1="0" y1="64" x2="512" y2="64"/>
		<line display="inline" fill="none" stroke="#B35047" x1="0" y1="96" x2="512" y2="96"/>
		<line display="inline" fill="none" stroke="#B35047" x1="0" y1="128" x2="512" y2="128"/>
		<line display="inline" fill="none" stroke="#B35047" x1="0" y1="160" x2="512" y2="160"/>
		<line display="inline" fill="none" stroke="#B35047" x1="0" y1="192" x2="512" y2="192"/>
		<line display="inline" fill="none" stroke="#B35047" x1="0" y1="224" x2="512" y2="224"/>
		<line display="inline" fill="none" stroke="#B35047" x1="0" y1="256" x2="512" y2="256"/>
		<line display="inline" fill="none" stroke="#B35047" x1="0" y1="288" x2="512" y2="288"/>
		<line display="inline" fill="none" stroke="#B35047" x1="0" y1="320" x2="512" y2="320"/>
		<line display="inline" fill="none" stroke="#B35047" x1="0" y1="352" x2="512" y2="352"/>
		<line display="inline" fill="none" stroke="#B35047" x1="0" y1="384" x2="512" y2="384"/>
		<line display="inline" fill="none" stroke="#B35047" x1="0" y1="416" x2="512" y2="416"/>
		<line display="inline" fill="none" stroke="#B35047" x1="0" y1="448" x2="512" y2="448"/>
		<line display="inline" fill="none" stroke="#B35047" x1="0" y1="480" x2="512" y2="480"/>
		<rect display="inline" fill="none" stroke="#B35047" width="512" height="512"/>
	</g>
	<g display="inline">
		<rect x="162.557" y="75.895" width="28.748" height="71.862"/>
		<rect x="320.678" y="75.895" width="28.744" height="71.862"/>
		<g>
			<path d="M406.917,119.014h-57.495v28.743h-28.744v-28.743H191.305v28.743h-28.748v-28.743h-57.495
				c-7.934,0-14.375,6.462-14.375,14.368v28.751h330.606v-28.751C421.293,125.476,414.863,119.014,406.917,119.014z"/>
			<path d="M90.687,420.864c0,7.954,6.441,14.376,14.375,14.376h301.855c7.946,0,14.376-6.422,14.376-14.376V176.509H90.687V420.864
				z"/>
		</g>
	</g>
</g>
<g id="Layer_2" display="none">
	<g id="XMLID_11_" display="inline">
		<path d="M445.2,233.217c9.123,63.694-53.518,121.395-93.968,80.455c-33.637-34.047,0.45-112.025,42.262-120.241
			C423.604,187.537,441.747,209.114,445.2,233.217z"/>
		<path d="M336.732,307.348c25.692,36.433,64.521,121.138-6.994,126.672c-22.54,1.743-41.894-15.575-62.223-17
			c-19.473-1.333-46.988,11.657-68.63,14.138c-29.317,3.362-66.334-3.095-74.621-27.443
			c-12.865-37.788,36.213-101.682,63.073-126.333c12.559-11.527,30.142-24.674,50.024-28.795
			C280.751,239.594,313.752,274.808,336.732,307.348z"/>
		<path d="M321.094,80.81c90.887-11.436,60.448,134.473-5.109,135.019C241.631,216.432,264.402,86.784,321.094,80.81z"/>
		<path d="M190.596,79.843c64.492-7.91,88.181,125.231,28.299,131.286C155.37,217.56,118.162,88.712,190.596,79.843z"/>
		<path d="M94.52,166.708c64.074-15.649,107.662,119.092,51.136,133.265C84.842,315.231,31.848,197.787,88.287,166.67
			C89.736,165.876,92.876,167.124,94.52,166.708z"/>
	</g>
</g>
<g id="Layer_3" display="none">
	<path display="inline" d="M257.375,145.024C195.842,53.09,72.75,106.883,72.75,207.027c0,67.727,61.494,109.216,107.715,145.616
		c48.023,37.88,61.533,55.574,76.91,70.885c15.402-15.311,28.254-33.834,76.936-70.885C381.186,316.987,442,274.029,442,206.283
		C442,106.883,318.934,53.09,257.375,145.024z"/>
</g>
<g id="Layer_4">
	<path d="M256.488,97L96,257.488h29.166V418h58.387v-87.54c0-40.278,32.651-72.947,72.948-72.947s72.947,32.669,72.947,72.947V418
		h58.375V257.488H417L256.488,97z M259.881,166.825c1.764-6.583,7.21-10.867,12.151-9.533c4.936,1.318,7.493,7.732,5.735,14.315
		c-1.765,6.583-7.186,10.867-12.121,9.533C260.704,179.811,258.123,173.396,259.881,166.825z M240.943,157.292
		c4.948-1.334,10.37,2.95,12.133,9.533c1.764,6.571-0.793,12.985-5.734,14.315c-4.936,1.31-10.37-2.95-12.134-9.533
		C233.444,165.024,236.007,158.61,240.943,157.292z M216.922,190.48c-1.764-6.583,0.812-12.997,5.747-14.327
		c4.942-1.307,10.388,2.953,12.146,9.536c1.765,6.583-0.805,13.006-5.759,14.315C224.12,201.336,218.686,197.063,216.922,190.48z
		 M284.467,234.982c-6.755,5.172-17.635,0.052-24.924-0.704c-1.033-0.104-2.047-0.132-3.055-0.132c-0.996,0-2.01,0.028-3.055,0.132
		c-7.29,0.756-18.169,5.876-24.924,0.704c-3.368-2.584-7.837-8.581-5.132-15.216c2.231-5.409,10.043-6.804,13.769-10.542
		c7.781-7.784,5.943-20.561,19.343-21.316c13.399,0.756,11.543,13.532,19.319,21.316c3.719,3.737,11.556,5.133,13.78,10.542
		C292.304,226.401,287.835,232.397,284.467,234.982z M296.035,190.469c-1.776,6.595-7.191,10.867-12.134,9.536
		c-4.936-1.334-7.511-7.732-5.747-14.315s7.197-10.855,12.134-9.536C295.229,177.483,297.812,183.897,296.035,190.469z"/>
</g>
</svg>
