<?xml version="1.0" encoding="utf-8"?>
<!-- Generator: Adobe Illustrator 16.0.1, SVG Export Plug-In . SVG Version: 6.00 Build 0)  -->
<!DOCTYPE svg PUBLIC "-//W3C//DTD SVG 1.1//EN" "http://www.w3.org/Graphics/SVG/1.1/DTD/svg11.dtd">
<svg version="1.1" id="Layer_1" xmlns="http://www.w3.org/2000/svg" xmlns:xlink="http://www.w3.org/1999/xlink" x="0px" y="0px"
	 width="512px" height="512px" viewBox="0 0 512 512" enable-background="new 0 0 512 512" xml:space="preserve">
<g>
	<path d="M256,81c-96.653,0-175,78.347-175,174.983C81,352.652,159.347,431,256,431c96.652,0,175-78.348,175-175.017
		C431,159.347,352.652,81,256,81z M256,413.498c-86.842,0-157.498-70.655-157.498-157.515c0-86.825,70.656-157.481,157.498-157.481
		s157.498,70.656,157.498,157.481C413.498,342.843,342.842,413.498,256,413.498z"/>
	<path d="M235.704,166.389c0-11.212,9.084-20.305,20.296-20.305c11.211,0,20.305,9.092,20.305,20.305s-9.094,20.305-20.305,20.305
		C244.788,186.694,235.704,177.602,235.704,166.389z"/>
	<rect x="235.704" y="211.203" width="40.601" height="137.896"/>
</g>
</svg>
