<?xml version="1.0" encoding="utf-8"?>
<!-- Generator: Adobe Illustrator 16.0.1, SVG Export Plug-In . SVG Version: 6.00 Build 0)  -->
<!DOCTYPE svg PUBLIC "-//W3C//DTD SVG 1.1//EN" "http://www.w3.org/Graphics/SVG/1.1/DTD/svg11.dtd">
<svg version="1.1" id="Layer_1" xmlns="http://www.w3.org/2000/svg" xmlns:xlink="http://www.w3.org/1999/xlink" x="0px" y="0px"
	 width="512px" height="512px" viewBox="0 0 512 512" enable-background="new 0 0 512 512" xml:space="preserve">
<path d="M366.112,328.154l-6.495-6.495c-1.128-1.163-3.007-1.163-4.137,0l-17.775,17.707
	c-14.017-13.982-27.279-27.313-41.021-41.056c0.923-0.754,21.535-18.051,3.28-36.211c-7.28-7.282-46.097-46.321-58.379-58.389
	c-14.836-14.836-33.586,3.539-35.961,6.307c-3.121-3.486-5.333-6.734-8.282-9.009c-1.982-1.521-9.917-3.636-11.533-5.26
	c-12.042-12.101-24.168-24.134-36.234-36.236c-0.854-0.837-5.688-1.286-5.688-1.286s0.449,4.833,1.294,5.687
	c12.093,12.067,24.116,24.203,36.228,36.236c1.624,1.606,3.739,9.559,5.26,11.541c2.273,2.939,5.512,5.163,9.016,8.273
	c-2.769,2.376-21.151,21.126-6.316,35.962c12.077,12.29,51.106,51.099,58.379,58.38c18.16,18.254,35.465-2.358,36.219-3.283
	c13.742,13.744,27.073,27.008,41.056,41.022l-17.707,17.776c-1.163,1.127-1.163,3.008,0.001,4.137l6.492,6.494
	c1.13,1.163,3.01,1.163,4.138,0l48.167-48.166C367.274,331.163,367.274,329.281,366.112,328.154z M251.166,288.432
	c2.035-1.949,3.666-3.486,5.23-4.99c5.257,5.299,10.246,10.221,15.512,15.52c-0.957,0.854-7.863,6.734-11.829,2.769
	c-19.041-19.073-38.064-38.157-57.165-57.181c-2.804-2.77-3.12-4.751-0.078-7.624c3.384-3.178,16.896-16.715,19.75-19.74
	c2.863-3.042,4.845-2.718,7.632,0.085c18.998,19.11,38.098,38.116,57.166,57.148c3.966,3.966-1.915,10.871-2.771,11.829
	c-5.289-5.266-10.229-10.256-15.51-15.484c1.504-1.581,3.041-3.205,4.974-5.24c-4.342-4.172-8.222-8.392-12.238-12.238
	l-22.903,22.914C242.782,280.191,247.004,284.09,251.166,288.432z"/>
<path d="M255.422,81.195c-96.657,0-175.008,78.352-175.008,175.009c0,96.666,78.352,175.017,175.008,175.017
	c96.641,0,174.992-78.351,174.992-175.017C430.414,159.547,352.062,81.195,255.422,81.195z M255.422,413.718
	c-86.846,0-157.506-70.659-157.506-157.515c0-86.847,70.66-157.506,157.506-157.506c86.83,0,157.489,70.66,157.489,157.506
	C412.911,343.059,342.251,413.718,255.422,413.718z"/>
</svg>
