<?xml version="1.0" encoding="utf-8"?>
<!-- Generator: Adobe Illustrator 16.0.0, SVG Export Plug-In . SVG Version: 6.00 Build 0)  -->
<!DOCTYPE svg PUBLIC "-//W3C//DTD SVG 1.1//EN" "http://www.w3.org/Graphics/SVG/1.1/DTD/svg11.dtd">
<svg version="1.1" id="Layer_1" xmlns="http://www.w3.org/2000/svg" xmlns:xlink="http://www.w3.org/1999/xlink" x="0px" y="0px"
	 width="12px" height="12px" viewBox="0 0 12 12" enable-background="new 0 0 12 12" xml:space="preserve">
<g>
	<path fill-rule="evenodd" clip-rule="evenodd" fill="#A5DEF4" d="M1.912,5.648C1.328,5.807,0.82,6.138,0.483,6.716
		c-0.852,1.46,1.434,2.797,2.153,2.627c0.236-0.057,0.46-0.133,0.678-0.225c-0.261-0.23-0.497-0.496-0.7-0.797
		C2.068,7.511,1.845,6.574,1.912,5.648L1.912,5.648z M4.657,9.917c0.015,0.094,0.038,0.176,0.068,0.244
		c0.72,1.589,1.828,1.139,2.342-0.037C6.245,10.27,5.411,10.196,4.657,9.917L4.657,9.917z M10.15,8.231
		c1.271,0.056,2.153-0.734,1.059-2.081c-0.038-0.047-0.087-0.095-0.146-0.139C10.962,6.797,10.65,7.566,10.15,8.231L10.15,8.231z
		 M10.964,4.372c0.158-0.141,0.307-0.291,0.445-0.457c0.474-0.568,0.297-3.208-1.389-3.099C9.388,0.857,8.885,1.134,8.49,1.548
		c0.753,0.31,1.417,0.827,1.896,1.539C10.656,3.489,10.849,3.922,10.964,4.372L10.964,4.372z"/>
	<path fill-rule="evenodd" clip-rule="evenodd" fill="#C0DC88" d="M6.583,6.636c-0.837-0.56-3.051-1.432-4.671-0.988
		C1.845,6.574,2.068,7.511,2.614,8.322c0.203,0.301,0.438,0.566,0.7,0.797c0.718-0.303,1.36-0.773,2.111-1.238
		C4.766,8.527,4.577,9.397,4.657,9.917c0.753,0.278,1.587,0.353,2.411,0.207c0.3-0.686,0.397-1.618,0.095-2.537
		C7.302,7.713,7.442,7.792,7.56,7.81c0.037,0.064,0.077,0.129,0.118,0.195C8.071,8.642,8.454,9.123,8.53,9.075
		C8.607,9.028,8.349,8.47,7.955,7.833c-0.04-0.065-0.081-0.129-0.122-0.191C7.871,7.525,7.86,7.357,7.806,7.17
		c0.695,0.694,1.588,1.026,2.345,1.061c0.5-0.665,0.812-1.434,0.913-2.22C10.648,5.69,9.757,5.446,8.856,5.758
		c0.774-0.48,1.506-0.854,2.107-1.387c-0.115-0.449-0.308-0.883-0.578-1.285C9.907,2.375,9.243,1.857,8.49,1.548
		C7.31,2.785,7.095,5.243,7.229,6.251c-0.213-0.189-0.427-0.27-0.56-0.188C6.536,6.146,6.512,6.367,6.583,6.636L6.583,6.636z
		 M6.14,3.518C6.061,3.571,6.037,3.672,6.085,3.745c0.026,0.039,0.07,0.062,0.116,0.066l0.296,1.788
		c-0.031,0.01-0.062,0.024-0.091,0.042C6.38,5.658,6.356,5.677,6.334,5.698L4.869,4.637c0.017-0.045,0.016-0.093-0.008-0.135
		c-0.043-0.076-0.145-0.1-0.228-0.053C4.551,4.497,4.52,4.598,4.563,4.674c0.044,0.076,0.145,0.1,0.228,0.053
		c0.015-0.009,0.027-0.02,0.04-0.031l1.492,1.014C6.236,5.801,6.207,5.92,6.26,6.005c0.067,0.108,0.243,0.121,0.391,0.031
		c0.147-0.092,0.214-0.256,0.146-0.364C6.746,5.588,6.631,5.561,6.513,5.594l-0.241-1.79c0.016-0.005,0.031-0.013,0.044-0.022
		c0.08-0.052,0.104-0.154,0.055-0.227C6.323,3.482,6.219,3.465,6.14,3.518L6.14,3.518z"/>
	<path fill-rule="evenodd" clip-rule="evenodd" fill="#DAEEF5" d="M6.583,6.636c-0.837-0.56-3.051-1.432-4.671-0.988
		C1.845,6.574,2.068,7.511,2.614,8.322c0.203,0.301,0.438,0.566,0.7,0.797c0.718-0.303,1.36-0.773,2.111-1.238
		C4.766,8.527,4.577,9.397,4.657,9.917c0.753,0.278,1.587,0.353,2.411,0.207c0.3-0.686,0.397-1.618,0.095-2.537
		C7.302,7.713,7.442,7.792,7.56,7.81c0.037,0.064,0.077,0.129,0.118,0.195C8.071,8.642,8.454,9.123,8.53,9.075
		C8.607,9.028,8.349,8.47,7.955,7.833c-0.04-0.065-0.081-0.129-0.122-0.191C7.871,7.525,7.86,7.357,7.806,7.17
		c0.695,0.694,1.588,1.026,2.345,1.061c0.5-0.665,0.812-1.434,0.913-2.22C10.648,5.69,9.757,5.446,8.856,5.758
		c0.774-0.48,1.506-0.854,2.107-1.387c-0.115-0.449-0.308-0.883-0.578-1.285C9.907,2.375,9.243,1.857,8.49,1.548
		C7.31,2.785,7.095,5.243,7.229,6.251c-0.213-0.189-0.427-0.27-0.56-0.188C6.536,6.146,6.512,6.367,6.583,6.636L6.583,6.636z
		 M6.14,3.518C6.061,3.571,6.037,3.672,6.085,3.745c0.026,0.039,0.07,0.062,0.116,0.066l0.296,1.788
		c-0.031,0.01-0.062,0.024-0.091,0.042C6.38,5.658,6.356,5.677,6.334,5.698L4.869,4.637c0.017-0.045,0.016-0.093-0.008-0.135
		c-0.043-0.076-0.145-0.1-0.228-0.053C4.551,4.497,4.52,4.598,4.563,4.674c0.044,0.076,0.145,0.1,0.228,0.053
		c0.015-0.009,0.027-0.02,0.04-0.031l1.492,1.014C6.236,5.801,6.207,5.92,6.26,6.005c0.067,0.108,0.243,0.121,0.391,0.031
		c0.147-0.092,0.214-0.256,0.146-0.364C6.746,5.588,6.631,5.561,6.513,5.594l-0.241-1.79c0.016-0.005,0.031-0.013,0.044-0.022
		c0.08-0.052,0.104-0.154,0.055-0.227C6.323,3.482,6.219,3.465,6.14,3.518L6.14,3.518z"/>
</g>
</svg>
