<?xml version="1.0" encoding="utf-8"?>
<!-- Generator: Adobe Illustrator 16.0.0, SVG Export Plug-In . SVG Version: 6.00 Build 0)  -->
<!DOCTYPE svg PUBLIC "-//W3C//DTD SVG 1.1//EN" "http://www.w3.org/Graphics/SVG/1.1/DTD/svg11.dtd">
<svg version="1.1" id="Layer_1" xmlns="http://www.w3.org/2000/svg" xmlns:xlink="http://www.w3.org/1999/xlink" x="0px" y="0px"
	 width="18.166px" height="17.333px" viewBox="0 0 18.166 17.333" enable-background="new 0 0 18.166 17.333" xml:space="preserve">
<g>
	
		<linearGradient id="SVGID_1_" gradientUnits="userSpaceOnUse" x1="1145.4639" y1="817.1333" x2="1147.8773" y2="809.7053" gradientTransform="matrix(-0.7884 0.0464 0.0543 0.9224 872.6616 -792.5406)">
		<stop  offset="0.1" style="stop-color:#D65227"/>
		<stop  offset="0.9" style="stop-color:#B72025"/>
	</linearGradient>
	<path fill-rule="evenodd" clip-rule="evenodd" fill="url(#SVGID_1_)" d="M7.043,11.124c1.577-1.486,2.818-2.647,6.175-3.209
		c3.357-0.56,4.816-0.068,4.645,1.384c-0.172,1.453-0.713,3.587-1.951,3.48c-1.24-0.107-0.83,0.337-0.664,0.94
		c0.166,0.603-1.666,0.84-3.973-0.308C9.007,12.404,7.043,11.124,7.043,11.124L7.043,11.124z"/>
	<path fill-rule="evenodd" clip-rule="evenodd" fill="#A51E22" d="M7.143,11.121c0,0,3.47,1.824,4.15,2.819
		c0.678,0.995,1.076,1.602-0.115,2.53c-1.189,0.93-2.008,0.688-2.752,0.283c-0.745-0.404-1.608-1.883-1.521-3.078
		S7.143,11.121,7.143,11.121L7.143,11.121z"/>
	<path fill-rule="evenodd" clip-rule="evenodd" fill="#FFD582" d="M15.639,8.557c0.582,0.115,1.412,0.56,0.107,0.74
		c-1.303,0.182-1.617,0.066-1.758-0.164s-0.264-0.583,0.027-0.629C14.307,8.457,15.059,8.442,15.639,8.557L15.639,8.557z"/>
	<path fill-rule="evenodd" clip-rule="evenodd" fill="#FFD582" d="M15.41,9.494c-0.67,0.005-1.355,0.044-1.371,0.179
		c-0.014,0.136,0.756,0.269,1.168,0.333c0.414,0.066,1.176,0.137,1.363-0.034c0.18-0.163,0.098-0.3-0.045-0.376
		C16.213,9.425,15.488,9.493,15.41,9.494L15.41,9.494z"/>
	<path fill-rule="evenodd" clip-rule="evenodd" fill="#FFD582" d="M14.033,9.998c-0.018-0.074,2.045,0.178,2.441,0.408
		c0.396,0.231,0.232,0.674-0.691,0.385C14.861,10.501,14.049,10.072,14.033,9.998L14.033,9.998z"/>
	<path fill-rule="evenodd" clip-rule="evenodd" fill="#F9AA90" d="M14.057,10.396c-0.635-0.36,2.293,0.537,2.201,0.976
		c-0.094,0.438-0.645,0.46-0.988,0.04C14.973,11.07,14.293,10.529,14.057,10.396L14.057,10.396z"/>
	<path fill-rule="evenodd" clip-rule="evenodd" fill="#F9AA90" d="M12.502,8.556c1.146-0.052,1.361,1.064,1.33,1.603
		s-1.012,0.358-1.789,0.403c-0.775,0.046-4.14,0.266-4.28,0.273c-0.141,0.008,1.518-1.152,2.14-1.443
		C10.523,9.103,11.357,8.608,12.502,8.556L12.502,8.556z"/>
	<path fill-rule="evenodd" clip-rule="evenodd" fill="#FFD582" d="M11.074,10.8c0,0,1.664-0.156,2.666-0.037
		c1.002,0.121,1.824,0.879,1.426,1.245c-0.4,0.368-1.033,0.138-1.738-0.271C12.781,11.363,11.074,10.8,11.074,10.8L11.074,10.8z"/>
	<path fill-rule="evenodd" clip-rule="evenodd" fill="#F9AA90" d="M8.184,11.105c-0.785-0.127,1.525-0.241,2.607-0.168
		c0.932,0.062,3.488,1.408,3.568,1.656c0.076,0.249-0.076,0.482-1.102,0.393c-1.025-0.088-1.426-0.945-2.291-1.224
		C10.506,11.615,8.184,11.105,8.184,11.105L8.184,11.105z"/>
	<path fill-rule="evenodd" clip-rule="evenodd" fill="#FFD582" d="M8.931,11.42c0.218,0.002,1.668,0.212,1.84,0.517
		c0.172,0.303-0.391,0.306-0.837,0.062C9.486,11.759,8.931,11.42,8.931,11.42L8.931,11.42z"/>
	<path fill-rule="evenodd" clip-rule="evenodd" fill="#FFD582" d="M9.885,13.183c0.037-0.127,1.101,0.51,1.326,1.249
		c0.225,0.738-0.016,1.155-0.264,1.295c-0.25,0.14-0.917-1.228-1.036-1.773C9.828,13.563,9.848,13.31,9.885,13.183L9.885,13.183z"/>
	<path fill-rule="evenodd" clip-rule="evenodd" fill="#FFD582" d="M9.642,13.744c0.094-0.096,0.194,0.147,0.348,0.719
		c0.155,0.57,0.725,1.271,0.657,1.45s-0.533,0.286-0.76,0.126c-0.227-0.159-0.541-1.512-0.509-1.808
		C9.411,13.935,9.548,13.837,9.642,13.744L9.642,13.744z"/>
	<path fill-rule="evenodd" clip-rule="evenodd" fill="#FFD582" d="M9.338,14.478c0.077,0.736,0.359,1.446,0.378,1.625
		c0.02,0.177-0.698-0.139-0.749-0.246c-0.052-0.105-0.278-1.725-0.273-1.891c0.016-0.393,0.327-0.174,0.547,0.068
		C9.349,14.155,9.31,14.214,9.338,14.478L9.338,14.478z"/>
	<path fill-rule="evenodd" clip-rule="evenodd" fill="#FFD582" d="M8.262,13.005c0,0,0.205,0.307,0.311,0.964
		s0.486,1.952,0.054,1.823c-0.434-0.129-0.552-0.439-0.57-0.679c-0.02-0.241,0.058-1.958,0.065-2.036
		C8.134,12.949,8.192,12.885,8.262,13.005L8.262,13.005z"/>
	<path fill-rule="evenodd" clip-rule="evenodd" fill="#F9AA90" d="M7.829,11.702c0,0,1.779,0.91,1.912,1.284
		c0.133,0.376-0.076,0.863-0.474,0.854c-0.398-0.012-0.589-0.328-0.896-0.816S7.829,11.702,7.829,11.702L7.829,11.702z"/>
	<path fill-rule="evenodd" clip-rule="evenodd" fill="#F9AA90" d="M7.225,11.568c0.019-0.309,0.819,0.024,0.776,1.584
		c-0.042,1.559,0.046,2.187-0.103,2.28c-0.148,0.095-0.868-1.128-0.855-1.581C7.055,13.396,7.225,11.568,7.225,11.568L7.225,11.568z
		"/>
	
		<linearGradient id="SVGID_2_" gradientUnits="userSpaceOnUse" x1="-340.8022" y1="1722.769" x2="-338.3891" y2="1715.342" gradientTransform="matrix(0.2998 0.7307 -0.8549 0.3508 1576.1233 -349.0326)">
		<stop  offset="0.04" style="stop-color:#D65227"/>
		<stop  offset="0.96" style="stop-color:#B72025"/>
	</linearGradient>
	<path fill-rule="evenodd" clip-rule="evenodd" fill="url(#SVGID_2_)" d="M7.042,11.124c0.658-2.065,1.166-3.688,0.217-6.956
		C6.311,0.9,5.234-0.202,4,0.582c-1.233,0.783-2.923,2.197-2.29,3.268c0.634,1.07,0.057,0.894-0.56,1.005
		C0.535,4.966,1.115,6.721,3.147,8.301C5.039,9.909,7.042,11.124,7.042,11.124L7.042,11.124z"/>
	<path fill-rule="evenodd" clip-rule="evenodd" fill="#A51E22" d="M7.003,11.033c0,0-3.147-2.338-4.339-2.518
		c-1.191-0.181-1.91-0.276-2.231,1.198c-0.321,1.476,0.252,2.109,0.938,2.605s2.392,0.633,3.433,0.037
		C5.842,11.757,7.003,11.033,7.003,11.033L7.003,11.033z"/>
	<path fill-rule="evenodd" clip-rule="evenodd" fill="#FFD582" d="M5.633,2.265C5.278,1.791,4.517,1.235,4.919,2.489
		C5.321,3.742,5.56,3.974,5.83,4.001c0.27,0.028,0.639-0.014,0.556-0.296C6.3,3.423,5.989,2.738,5.633,2.265L5.633,2.265z"/>
	<path fill-rule="evenodd" clip-rule="evenodd" fill="#FFD582" d="M4.887,2.876c0.285,0.605,0.548,1.242,0.434,1.313
		C5.206,4.261,4.751,3.625,4.513,3.282s-0.631-1-0.559-1.244c0.069-0.232,0.229-0.217,0.359-0.122
		C4.602,2.125,4.855,2.808,4.887,2.876L4.887,2.876z"/>
	<path fill-rule="evenodd" clip-rule="evenodd" fill="#FFD582" d="M5.031,4.336C5.104,4.32,3.984,2.569,3.604,2.312
		c-0.38-0.257-0.707,0.083-0.047,0.79S4.956,4.353,5.031,4.336L5.031,4.336z"/>
	<path fill-rule="evenodd" clip-rule="evenodd" fill="#F9AA90" d="M4.662,4.487c0.6,0.417-1.479-1.834-1.834-1.56
		c-0.355,0.273-0.136,0.78,0.392,0.907C3.656,3.955,4.439,4.332,4.662,4.487L4.662,4.487z"/>
	<path fill-rule="evenodd" clip-rule="evenodd" fill="#F9AA90" d="M6.993,5.091C6.543,4.035,5.444,4.325,4.971,4.587
		C4.5,4.849,5.088,5.655,5.383,6.374s1.556,3.847,1.609,3.977c0.053,0.129,0.38-1.869,0.373-2.554
		C7.358,7.112,7.441,6.146,6.993,5.091L6.993,5.091z"/>
	<path fill-rule="evenodd" clip-rule="evenodd" fill="#FFD582" d="M5.588,7.35c0,0-0.58-1.565-1.121-2.417
		c-0.543-0.852-1.583-1.265-1.74-0.746C2.569,4.706,3.05,5.178,3.725,5.636C4.341,6.055,5.588,7.35,5.588,7.35L5.588,7.35z"/>
	<path fill-rule="evenodd" clip-rule="evenodd" fill="#F9AA90" d="M6.566,10.087c0.453,0.652-0.444-1.479-0.978-2.421
		c-0.462-0.814-2.78-2.536-3.039-2.499C2.291,5.206,2.147,5.443,2.672,6.33c0.524,0.886,1.471,0.875,2.096,1.536
		C5.101,8.217,6.566,10.087,6.566,10.087L6.566,10.087z"/>
	<path fill-rule="evenodd" clip-rule="evenodd" fill="#FFD582" d="M5.958,9.55C5.863,9.356,5.043,8.138,4.696,8.115
		C4.348,8.093,4.589,8.6,5.001,8.898C5.414,9.198,5.958,9.55,5.958,9.55L5.958,9.55z"/>
	<path fill-rule="evenodd" clip-rule="evenodd" fill="#FFD582" d="M3.957,9.455C4.055,9.367,3.019,8.682,2.255,8.8
		C1.493,8.919,1.222,9.316,1.204,9.6S2.708,9.895,3.25,9.765C3.638,9.671,3.858,9.543,3.957,9.455L3.957,9.455z"/>
	<path fill-rule="evenodd" clip-rule="evenodd" fill="#FFD582" d="M3.557,9.916c0.044-0.125-0.219-0.109-0.799-0.001
		c-0.581,0.108-1.461-0.102-1.592,0.037c-0.132,0.138-0.026,0.604,0.216,0.739c0.241,0.135,1.598-0.168,1.85-0.324
		C3.485,10.208,3.512,10.042,3.557,9.916L3.557,9.916z"/>
	<path fill-rule="evenodd" clip-rule="evenodd" fill="#FFD582" d="M3.026,10.509c-0.697,0.25-1.459,0.301-1.628,0.361
		c-0.168,0.061,0.428,0.57,0.546,0.57s1.675-0.496,1.823-0.573c0.347-0.185,0.014-0.369-0.3-0.463
		C3.313,10.359,3.275,10.42,3.026,10.509L3.026,10.509z"/>
	<path fill-rule="evenodd" clip-rule="evenodd" fill="#FFD582" d="M4.819,10.841c0,0-0.364-0.054-1.003,0.137
		c-0.637,0.189-1.97,0.408-1.666,0.742c0.305,0.335,0.635,0.307,0.859,0.221C3.234,11.853,4.748,11.039,4.816,11
		C4.926,10.931,4.958,10.852,4.819,10.841L4.819,10.841z"/>
	<path fill-rule="evenodd" clip-rule="evenodd" fill="#F9AA90" d="M6.182,10.666c0,0-1.591-1.209-1.986-1.166
		C3.799,9.543,3.45,9.943,3.633,10.296c0.183,0.354,0.55,0.389,1.124,0.453C5.331,10.816,6.182,10.666,6.182,10.666L6.182,10.666z"
		/>
	<path fill-rule="evenodd" clip-rule="evenodd" fill="#F9AA90" d="M6.565,11.152c0.271-0.15-0.378-0.729-1.765-0.014
		s-1.99,0.908-2.01,1.081c-0.022,0.175,1.392,0.294,1.796,0.085C4.99,12.097,6.565,11.152,6.565,11.152L6.565,11.152z"/>
	<g>
		<path fill-rule="evenodd" clip-rule="evenodd" fill="#4F441A" d="M8.243,9.857c-0.403,0.768-1.147,1.617-1.591,2.16
			C5.185,13.81,7.241,9.99,7.529,9.664C7.961,9.172,8.243,9.857,8.243,9.857L8.243,9.857z"/>
		<path fill="#4F441A" d="M8.376,8.972c0.689-0.467,1.652-1.309,2.428-2.071C9.891,7.929,9.042,8.618,8.03,9.505
			c0.322-1.28,0.683-2.292,0.995-3.564C8.744,7.475,8.522,8.118,8.376,8.972L8.376,8.972z"/>
		
			<ellipse transform="matrix(0.6852 -0.7284 0.7284 0.6852 -4.3009 8.8688)" fill-rule="evenodd" clip-rule="evenodd" fill="#4F441A" cx="8.109" cy="9.41" rx="0.475" ry="0.511"/>
		<g>
			
				<ellipse transform="matrix(0.6857 -0.7278 0.7278 0.6857 -4.1844 9.1202)" fill-rule="evenodd" clip-rule="evenodd" fill="#4F441A" cx="8.469" cy="9.406" rx="0.325" ry="0.35"/>
			
				<ellipse transform="matrix(0.6847 -0.7288 0.7288 0.6847 -4.1259 9.1585)" fill-rule="evenodd" clip-rule="evenodd" fill="#F5C86E" cx="8.523" cy="9.348" rx="0.244" ry="0.263"/>
		</g>
		<g>
			
				<ellipse transform="matrix(0.6857 -0.7278 0.7278 0.6857 -4.13 8.6447)" fill-rule="evenodd" clip-rule="evenodd" fill="#4F441A" cx="7.946" cy="9.105" rx="0.325" ry="0.351"/>
			
				<ellipse transform="matrix(0.6847 -0.7288 0.7288 0.6847 -4.0713 8.6812)" fill-rule="evenodd" clip-rule="evenodd" fill="#F5C86E" cx="7.999" cy="9.046" rx="0.244" ry="0.263"/>
		</g>
	</g>
</g>
</svg>
