<?xml version="1.0" encoding="utf-8"?>
<!-- Generator: Adobe Illustrator 16.0.0, SVG Export Plug-In . SVG Version: 6.00 Build 0)  -->
<!DOCTYPE svg PUBLIC "-//W3C//DTD SVG 1.1//EN" "http://www.w3.org/Graphics/SVG/1.1/DTD/svg11.dtd">
<svg version="1.1" xmlns="http://www.w3.org/2000/svg" xmlns:xlink="http://www.w3.org/1999/xlink" x="0px" y="0px" 
	width="100px" height="100px" viewBox="0 0 100 100" enable-background="new 0 0 100 100" xml:space="preserve">
	<title>A New Beginning Pet Rescue Logo</title>
	<g id="Layer_1"></g>
	<g id="Layer_3">
		<linearGradient id="SVGID_1_" gradientUnits="userSpaceOnUse" x1="50" y1="94.5488" x2="50" y2="6.5005">
			<stop  offset="0" style="stop-color:#FFFFFF"/>
			<stop  offset="1" style="stop-color:#D4D5D4"/>
		</linearGradient>
		<path fill="url(#SVGID_1_)" stroke="#D5D5D5" stroke-miterlimit="10" d="M91.69,40.964L73.687,9.783
			C72.607,7.912,70.163,6.5,68.002,6.5H31.999c-2.163,0-4.605,1.412-5.687,3.283L8.311,40.964C7.77,41.9,7.5,43.074,7.5,44.247
			c0,1.173,0.27,2.347,0.811,3.282L26.312,78.71c0.946,1.638,2.935,2.921,4.866,3.217c0.276,0.042,0.55,0.064,0.821,0.064h3.892
			c-0.052,0.862,0.224,1.621,0.48,2.539c0.404,1.444,0.013,2.64-1.28,3.604c-1.881,1.407-2.396,3.507-1.463,5.497
			c0.177,0.377,0.651,0.615,0.986,0.917c0.185-0.321,0.34-0.661,0.557-0.963c0.53-0.741,1.001-1.558,1.655-2.178
			c1.021-0.972,2.194-1.786,3.266-2.709c1.34-1.155,1.753-2.647,1.521-4.375c-0.102-0.759-0.157-1.536-0.109-2.297
			c0-0.012,0.003-0.024,0.003-0.036h19.452c0.326,0.42,0.574,0.89,0.622,1.383c0.065,0.639,0.284,1.264,0.343,1.902
			c0.148,1.606-0.33,2.282-1.825,2.856c-0.707,0.271-1.434,0.563-2.039,1.001c-1.101,0.795-1.47,2.63-0.851,3.696
			c0.486,0.839,1.864,1.177,3.191,0.78c3.438-1.025,5.937-5.541,5.035-9.175c-0.211-0.848-0.49-1.679-0.743-2.444h3.31
			c0.271,0,0.545-0.022,0.82-0.064c1.931-0.296,3.92-1.579,4.864-3.217l18.002-31.181c0.541-0.936,0.812-2.109,0.812-3.282
			C92.5,43.074,92.23,41.9,91.69,40.964z"/>
		<g>
			<g>
				<linearGradient id="SVGID_2_" gradientUnits="userSpaceOnUse" x1="52.6973" y1="76.0029" x2="52.6973" y2="29.5614">
					<stop  offset="0" style="stop-color:#9A9BC7"/>
					<stop  offset="1" style="stop-color:#523486"/>
				</linearGradient>
				<path fill="url(#SVGID_2_)" d="M57.635,71.256c-0.984-0.444-2.052-0.733-2.984-1.261c-1.9-1.077-1.947-1.76-0.392-3.211
					c1.383-1.288,1.526-1.682,0.511-3.303c-1.291-2.059-2.244-4.109-1.104-6.574c-2.854-0.52-2.888-3.386-4.351-5.004
					c-0.15,0.049-0.304,0.097-0.454,0.146c0.216,1.221,0.332,2.47,0.68,3.65c0.307,1.038,0.251,1.892-0.474,2.695
					c-0.376,0.418-0.719,0.873-1.099,1.288c-1.378,1.507-1.484,2.642-0.075,4.132c1.31,1.381,1.765,2.921,1.551,4.749
					c-0.046,0.392-0.09,0.872,0.09,1.177c0.155,0.257,0.715,0.531,0.96,0.439c2.117-0.792,3.232-0.188,3.611,2.16
					c1.143-0.194,1.492,0.552,1.755,1.507c0.097,0.353,0.549,0.607,0.839,0.907c0.204-0.3,0.413-0.591,0.607-0.895
					c0.23-0.36,0.444-0.729,0.676-1.089c0.18-0.282,0.59-0.664,0.518-0.81C58.347,71.655,57.973,71.407,57.635,71.256z"/>
				<linearGradient id="SVGID_3_" gradientUnits="userSpaceOnUse" x1="69.8887" y1="76.002" x2="69.8887" y2="29.5621">
					<stop  offset="0" style="stop-color:#9A9BC7"/>
					<stop  offset="1" style="stop-color:#523486"/>
				</linearGradient>
				<path fill="url(#SVGID_3_)" d="M88.743,42.666l-5.821-10.084c-9.167-3.507-18.562,1.376-18.562,1.376h-0.486
					C60.35,32.193,56.993,31,50.684,31v11.194c0.061-0.005,0.797,0.034,1.14,0.134c0.148,0.041,0.323-0.01,0.484-0.022
					c1.723-0.141,1.878,0.029,1.883,1.733c0.01,2.972,0.431,5.869,1.592,8.643c0.302,0.721,0.268,1.582,0.537,2.322
					c0.377,1.036,0.722,2.159,1.397,2.987c0.803,0.987,2.081,0.773,3.147,0.336c0.326-0.132,0.547-1.356,0.744-1.432
					c0.199-0.078,0.479,1.161,0.709,1.181c0.233,0.018,0.607-0.604,0.771-0.544s0.185,0.549,0.346,0.642
					c2.02,1.143,4.226,0.002,4.581-2.292c0.082-0.542,0.495-1.482,0.676-1.558c0.18-0.073,1.11,0.668,1.393,1.159
					c1.39,2.406,1.455,4.904,0.252,7.422c-0.908,1.908-0.846,2.643,0.737,4.135c0.848,0.799,0.753,1.458,0.056,2.15
					c-0.477,0.477-1.028,0.924-1.626,1.228c-0.676,0.343-1.463,0.462-2.153,0.78c-0.326,0.15-0.717,0.518-0.751,0.826
					c-0.029,0.248,0.438,0.544,0.671,0.833c0.328,0.406,0.639,0.829,0.965,1.237c0.211,0.263,0.394,0.625,0.668,0.727
					c0.15,0.054,0.511-0.311,0.692-0.549c0.168-0.214,0.153-0.586,0.341-0.764c0.459-0.433,0.991-1.112,1.482-1.103
					c0.503,0.007,1.055,0.425,1.495,0.841l15.831-27.419C89.212,45.016,89.212,43.478,88.743,42.666z"/>
				<linearGradient id="SVGID_4_" gradientUnits="userSpaceOnUse" x1="30.0679" y1="76.0029" x2="30.0679" y2="29.5625">
					<stop  offset="0" style="stop-color:#9A9BC7"/>
					<stop  offset="1" style="stop-color:#523486"/>
				</linearGradient>
				<path fill="url(#SVGID_4_)" d="M48.076,44.231c0.34-0.564,1.154-1.429,1.154-1.429V31c-6.31,0-9.666,1.193-13.189,2.958h-0.486
					c0,0-9.502-4.569-18.689-1.009l-5.609,9.717c-0.469,0.812-0.469,2.35,0,3.162l15.403,26.68c0.695-0.826,1.643-1.609,2.158-2.01
					c0.829-0.642,1.699-1.108,2.737-0.309c0.656,0.508,1.147,0.201,1.404-0.491c0.139-0.372,0.129-0.8,0.258-1.177
					c0.398-1.158,0.545-2.559,1.303-3.406c2.173-2.434,2.382-3.802,0.063-6.079c-1.172-1.151-1.544-2.211-0.96-3.749
					c0.286-0.759,0.23-1.648,0.33-2.477c-0.131-0.035-0.26-0.068-0.392-0.103c-0.27,0.384-0.493,0.813-0.818,1.145
					c-1.016,1.028-1.998,2.107-3.128,2.999c-1.031,0.814-1.961,0.153-2.805-0.566c-0.809-0.688-0.695-1.412-0.294-2.277
					c0.442-0.947,0.892-1.932,1.079-2.947c0.488-2.654,0.863-5.33,1.229-8.006c0.144-1.038,0.659-1.395,1.65-1.237
					c0.952,0.153,1.935,0.183,2.855,0.438c0.557,0.156,1.079,0.576,1.512,0.987c0.338,0.323,0.442,0.887,0.78,1.206
					c0.201,0.189,0.746,0.272,0.975,0.136c0.942-0.579,2.722-1.755,2.775-1.932c0.056-0.178-0.727-1.271-0.596-1.371
					c0.134-0.102,1.682,1.145,1.876,1.118c0.192-0.027,1.147-1.434,1.278-1.397c0.129,0.034-0.35,1.412-0.167,1.548
					c0.185,0.138,1.145-0.583,1.409-0.527c0.265,0.058,0.503,0.714,0.787,0.911c0.793,0.552,1.663,0.997,2.431,1.577
					C47.111,45.057,47.617,44.994,48.076,44.231z"/>
			</g>
		</g>
		<line fill="none" stroke="#D5D5D5" stroke-linecap="round" stroke-linejoin="round" x1="41.504" y1="81.991" x2="60.959" y2="81.991"/>
		<text transform="matrix(1 0 0 1 23.8408 28.5928)" fill="#523486" font-family="'ArialMT'" font-size="25">ANB</text>
	</g>
</svg>
